ISO-10303-21;
HEADER;
/* Generated by software containing ST-Developer
 * from STEP Tools, Inc. (www.steptools.com) 
 */
/* OPTION: using custom renumber hook */

FILE_DESCRIPTION(
/* description */ ('STEP AP242 Edition 2',
'CAx-IF Rec.Pracs.---Representation and Presentation of Product Manufa
cturing Information (PMI)---4.0---2014-10-13',
'CAx-IF Rec.Pracs.---3D Tessellated Geometry---0.4---2014-09-14','2;1',
'CAx-IF Rec.Pracs.---User Defined Attributes---1.5---2016-08-15'),
/* implementation_level */ '2;1');

FILE_NAME(
/* name */ '696ddce18cf51a131113f1e9',
/* time_stamp */ '2026-01-19T07:27:30Z',
/* author */ (''),
/* organization */ (''),
/* preprocessor_version */ 'ST-DEVELOPER v20',
/* originating_system */ 'ONSHAPE BY PTC INC, 1.209',
/* authorisation */ '  ');

FILE_SCHEMA (('AP242_MANAGED_MODEL_BASED_3D_ENGINEERING_MIM_LF { 1 0 10303 442 3 1 4 }'));
ENDSEC;

DATA;
#10=SHAPE_REPRESENTATION_RELATIONSHIP('','',#944,#11);
#11=ADVANCED_BREP_SHAPE_REPRESENTATION('',(#942),#1640);
#12=SPHERICAL_SURFACE('',#1008,0.00163099082399584);
#13=SPHERICAL_SURFACE('',#1026,0.00138099082399584);
#14=ELLIPSE('',#982,0.000504695208714762,0.0005);
#15=ELLIPSE('',#983,0.000504695208714762,0.0005);
#16=ELLIPSE('',#992,0.000504695208714762,0.0005);
#17=ELLIPSE('',#993,0.000504695208714762,0.0005);
#18=CYLINDRICAL_SURFACE('',#975,0.000596583269920637);
#19=CYLINDRICAL_SURFACE('',#977,0.000346583269920645);
#20=CYLINDRICAL_SURFACE('',#979,0.000596583269920637);
#21=CYLINDRICAL_SURFACE('',#984,0.000600583067904852);
#22=CYLINDRICAL_SURFACE('',#989,0.000850583067904849);
#23=CYLINDRICAL_SURFACE('',#994,0.000346583269920645);
#24=CYLINDRICAL_SURFACE('',#1001,0.0005);
#25=CYLINDRICAL_SURFACE('',#1002,0.0005);
#26=CYLINDRICAL_SURFACE('',#1003,0.0005);
#27=CYLINDRICAL_SURFACE('',#1004,0.0005);
#28=CYLINDRICAL_SURFACE('',#1005,0.007);
#29=CYLINDRICAL_SURFACE('',#1006,0.001);
#30=CYLINDRICAL_SURFACE('',#1007,0.001);
#31=CYLINDRICAL_SURFACE('',#1019,0.0005);
#32=CYLINDRICAL_SURFACE('',#1020,0.0005);
#33=CYLINDRICAL_SURFACE('',#1024,0.0005);
#34=CYLINDRICAL_SURFACE('',#1025,0.001);
#35=B_SPLINE_CURVE_WITH_KNOTS('',3,(#1406,#1407,#1408,#1409,#1410,#1411),
 .UNSPECIFIED.,.F.,.F.,(4,1,1,4),(0.,0.284029137573892,0.624792675151345,
1.),.UNSPECIFIED.);
#36=B_SPLINE_CURVE_WITH_KNOTS('',3,(#1413,#1414,#1415,#1416,#1417,#1418),
 .UNSPECIFIED.,.F.,.F.,(4,1,1,4),(0.,0.284029137573892,0.624792675151345,
1.),.UNSPECIFIED.);
#37=B_SPLINE_CURVE_WITH_KNOTS('',3,(#1433,#1434,#1435,#1436,#1437,#1438),
 .UNSPECIFIED.,.F.,.F.,(4,1,1,4),(0.,0.284029137573892,0.624792675151345,
1.),.UNSPECIFIED.);
#38=B_SPLINE_CURVE_WITH_KNOTS('',3,(#1442,#1443,#1444,#1445,#1446,#1447),
 .UNSPECIFIED.,.F.,.F.,(4,1,1,4),(0.,0.284029137573892,0.624792675151345,
1.),.UNSPECIFIED.);
#39=B_SPLINE_CURVE_WITH_KNOTS('',3,(#1553,#1554,#1555,#1556,#1557,#1558),
 .UNSPECIFIED.,.F.,.F.,(4,1,1,4),(0.,0.349815075508725,0.696319825378052,
1.),.UNSPECIFIED.);
#40=B_SPLINE_CURVE_WITH_KNOTS('',3,(#1562,#1563,#1564,#1565,#1566,#1567),
 .UNSPECIFIED.,.F.,.F.,(4,1,1,4),(0.,0.349815075508725,0.696319825378052,
1.),.UNSPECIFIED.);
#41=B_SPLINE_CURVE_WITH_KNOTS('',3,(#1585,#1586,#1587,#1588,#1589,#1590),
 .UNSPECIFIED.,.F.,.F.,(4,1,1,4),(0.,0.346306775830249,0.633644788433793,
0.884894510424591),.UNSPECIFIED.);
#42=B_SPLINE_CURVE_WITH_KNOTS('',3,(#1594,#1595,#1596,#1597,#1598,#1599),
 .UNSPECIFIED.,.F.,.F.,(4,1,1,4),(0.,0.346306775830249,0.633644788433793,
0.884894510424591),.UNSPECIFIED.);
#43=B_SPLINE_SURFACE_WITH_KNOTS('',3,1,((#1394,#1395),(#1396,#1397),(#1398,
#1399),(#1400,#1401),(#1402,#1403),(#1404,#1405)),
 .SURF_OF_LINEAR_EXTRUSION.,.F.,.F.,.F.,(4,1,1,4),(2,2),(0.,0.25,0.5,1.),
(0.,1.),.UNSPECIFIED.);
#44=B_SPLINE_SURFACE_WITH_KNOTS('',3,1,((#1421,#1422),(#1423,#1424),(#1425,
#1426),(#1427,#1428),(#1429,#1430),(#1431,#1432)),
 .SURF_OF_LINEAR_EXTRUSION.,.F.,.F.,.F.,(4,1,1,4),(2,2),(0.,0.25,0.5,1.),
(0.,1.),.UNSPECIFIED.);
#45=B_SPLINE_SURFACE_WITH_KNOTS('',3,1,((#1539,#1540),(#1541,#1542),(#1543,
#1544),(#1545,#1546),(#1547,#1548),(#1549,#1550),(#1551,#1552)),
 .SURF_OF_LINEAR_EXTRUSION.,.F.,.F.,.F.,(4,1,1,1,4),(2,2),(0.,0.25,0.5,
0.75,1.),(0.,1.),.UNSPECIFIED.);
#46=B_SPLINE_SURFACE_WITH_KNOTS('',3,1,((#1568,#1569),(#1570,#1571),(#1572,
#1573),(#1574,#1575),(#1576,#1577),(#1578,#1579),(#1580,#1581)),
 .SURF_OF_LINEAR_EXTRUSION.,.F.,.F.,.F.,(4,1,1,1,4),(2,2),(0.,0.221223627606148,
0.442447255212295,0.663670882818443,0.884894510424591),(0.,1.),
 .UNSPECIFIED.);
#47=CIRCLE('',#948,0.000346583269920645);
#48=CIRCLE('',#949,0.000596583269920637);
#49=CIRCLE('',#951,0.001);
#50=CIRCLE('',#952,0.007);
#51=CIRCLE('',#953,0.001);
#52=CIRCLE('',#955,0.000850583067904849);
#53=CIRCLE('',#956,0.000600583067904852);
#54=CIRCLE('',#957,0.000596583269920637);
#55=CIRCLE('',#958,0.000346583269920645);
#56=CIRCLE('',#960,0.000346583269920645);
#57=CIRCLE('',#961,0.000596583269920637);
#58=CIRCLE('',#962,0.000600583067904852);
#59=CIRCLE('',#963,0.000850583067904849);
#60=CIRCLE('',#966,0.001);
#61=CIRCLE('',#967,0.0005);
#62=CIRCLE('',#968,0.0005);
#63=CIRCLE('',#970,0.001);
#64=CIRCLE('',#971,0.0005);
#65=CIRCLE('',#972,0.0005);
#66=CIRCLE('',#976,0.000596583269920637);
#67=CIRCLE('',#978,0.000346583269920645);
#68=CIRCLE('',#981,0.00131201469717077);
#69=CIRCLE('',#986,0.007);
#70=CIRCLE('',#987,0.001);
#71=CIRCLE('',#988,0.001);
#72=CIRCLE('',#991,0.00148201975883998);
#73=CIRCLE('',#1012,0.0005);
#74=CIRCLE('',#1013,0.0005);
#75=CIRCLE('',#1014,0.0005);
#76=CIRCLE('',#1016,0.0005);
#77=CIRCLE('',#1017,0.0005);
#78=CIRCLE('',#1018,0.0005);
#79=ORIENTED_EDGE('',*,*,#345,.F.);
#80=ORIENTED_EDGE('',*,*,#346,.T.);
#81=ORIENTED_EDGE('',*,*,#347,.T.);
#82=ORIENTED_EDGE('',*,*,#348,.F.);
#83=ORIENTED_EDGE('',*,*,#347,.F.);
#84=ORIENTED_EDGE('',*,*,#349,.T.);
#85=ORIENTED_EDGE('',*,*,#350,.T.);
#86=ORIENTED_EDGE('',*,*,#351,.T.);
#87=ORIENTED_EDGE('',*,*,#352,.T.);
#88=ORIENTED_EDGE('',*,*,#353,.T.);
#89=ORIENTED_EDGE('',*,*,#354,.F.);
#90=ORIENTED_EDGE('',*,*,#355,.T.);
#91=ORIENTED_EDGE('',*,*,#356,.T.);
#92=ORIENTED_EDGE('',*,*,#357,.T.);
#93=ORIENTED_EDGE('',*,*,#358,.F.);
#94=ORIENTED_EDGE('',*,*,#359,.T.);
#95=ORIENTED_EDGE('',*,*,#360,.F.);
#96=ORIENTED_EDGE('',*,*,#361,.T.);
#97=ORIENTED_EDGE('',*,*,#362,.T.);
#98=ORIENTED_EDGE('',*,*,#363,.F.);
#99=ORIENTED_EDGE('',*,*,#364,.F.);
#100=ORIENTED_EDGE('',*,*,#365,.T.);
#101=ORIENTED_EDGE('',*,*,#356,.F.);
#102=ORIENTED_EDGE('',*,*,#366,.T.);
#103=ORIENTED_EDGE('',*,*,#367,.T.);
#104=ORIENTED_EDGE('',*,*,#368,.F.);
#105=ORIENTED_EDGE('',*,*,#369,.F.);
#106=ORIENTED_EDGE('',*,*,#370,.T.);
#107=ORIENTED_EDGE('',*,*,#371,.T.);
#108=ORIENTED_EDGE('',*,*,#372,.T.);
#109=ORIENTED_EDGE('',*,*,#373,.F.);
#110=ORIENTED_EDGE('',*,*,#374,.F.);
#111=ORIENTED_EDGE('',*,*,#375,.F.);
#112=ORIENTED_EDGE('',*,*,#376,.F.);
#113=ORIENTED_EDGE('',*,*,#377,.T.);
#114=ORIENTED_EDGE('',*,*,#378,.T.);
#115=ORIENTED_EDGE('',*,*,#379,.F.);
#116=ORIENTED_EDGE('',*,*,#380,.F.);
#117=ORIENTED_EDGE('',*,*,#360,.T.);
#118=ORIENTED_EDGE('',*,*,#381,.T.);
#119=ORIENTED_EDGE('',*,*,#382,.T.);
#120=ORIENTED_EDGE('',*,*,#383,.T.);
#121=ORIENTED_EDGE('',*,*,#384,.F.);
#122=ORIENTED_EDGE('',*,*,#385,.T.);
#123=ORIENTED_EDGE('',*,*,#386,.T.);
#124=ORIENTED_EDGE('',*,*,#387,.T.);
#125=ORIENTED_EDGE('',*,*,#388,.T.);
#126=ORIENTED_EDGE('',*,*,#389,.T.);
#127=ORIENTED_EDGE('',*,*,#390,.T.);
#128=ORIENTED_EDGE('',*,*,#384,.T.);
#129=ORIENTED_EDGE('',*,*,#391,.T.);
#130=ORIENTED_EDGE('',*,*,#392,.F.);
#131=ORIENTED_EDGE('',*,*,#393,.F.);
#132=ORIENTED_EDGE('',*,*,#394,.F.);
#133=ORIENTED_EDGE('',*,*,#386,.F.);
#134=ORIENTED_EDGE('',*,*,#395,.T.);
#135=ORIENTED_EDGE('',*,*,#396,.F.);
#136=ORIENTED_EDGE('',*,*,#397,.T.);
#137=ORIENTED_EDGE('',*,*,#398,.T.);
#138=ORIENTED_EDGE('',*,*,#399,.T.);
#139=ORIENTED_EDGE('',*,*,#400,.F.);
#140=ORIENTED_EDGE('',*,*,#397,.F.);
#141=ORIENTED_EDGE('',*,*,#401,.T.);
#142=ORIENTED_EDGE('',*,*,#402,.T.);
#143=ORIENTED_EDGE('',*,*,#403,.F.);
#144=ORIENTED_EDGE('',*,*,#404,.T.);
#145=ORIENTED_EDGE('',*,*,#405,.T.);
#146=ORIENTED_EDGE('',*,*,#393,.T.);
#147=ORIENTED_EDGE('',*,*,#406,.T.);
#148=ORIENTED_EDGE('',*,*,#407,.T.);
#149=ORIENTED_EDGE('',*,*,#408,.F.);
#150=ORIENTED_EDGE('',*,*,#348,.T.);
#151=ORIENTED_EDGE('',*,*,#355,.F.);
#152=ORIENTED_EDGE('',*,*,#409,.F.);
#153=ORIENTED_EDGE('',*,*,#377,.F.);
#154=ORIENTED_EDGE('',*,*,#410,.T.);
#155=ORIENTED_EDGE('',*,*,#404,.F.);
#156=ORIENTED_EDGE('',*,*,#411,.T.);
#157=ORIENTED_EDGE('',*,*,#369,.T.);
#158=ORIENTED_EDGE('',*,*,#412,.F.);
#159=ORIENTED_EDGE('',*,*,#349,.F.);
#160=ORIENTED_EDGE('',*,*,#346,.F.);
#161=ORIENTED_EDGE('',*,*,#413,.T.);
#162=ORIENTED_EDGE('',*,*,#414,.F.);
#163=ORIENTED_EDGE('',*,*,#415,.T.);
#164=ORIENTED_EDGE('',*,*,#416,.T.);
#165=ORIENTED_EDGE('',*,*,#371,.F.);
#166=ORIENTED_EDGE('',*,*,#417,.F.);
#167=ORIENTED_EDGE('',*,*,#402,.F.);
#168=ORIENTED_EDGE('',*,*,#418,.F.);
#169=ORIENTED_EDGE('',*,*,#375,.T.);
#170=ORIENTED_EDGE('',*,*,#419,.T.);
#171=ORIENTED_EDGE('',*,*,#420,.F.);
#172=ORIENTED_EDGE('',*,*,#412,.T.);
#173=ORIENTED_EDGE('',*,*,#368,.T.);
#174=ORIENTED_EDGE('',*,*,#421,.F.);
#175=ORIENTED_EDGE('',*,*,#416,.F.);
#176=ORIENTED_EDGE('',*,*,#422,.T.);
#177=ORIENTED_EDGE('',*,*,#423,.T.);
#178=ORIENTED_EDGE('',*,*,#372,.F.);
#179=ORIENTED_EDGE('',*,*,#409,.T.);
#180=ORIENTED_EDGE('',*,*,#354,.T.);
#181=ORIENTED_EDGE('',*,*,#424,.F.);
#182=ORIENTED_EDGE('',*,*,#378,.F.);
#183=ORIENTED_EDGE('',*,*,#425,.T.);
#184=ORIENTED_EDGE('',*,*,#353,.F.);
#185=ORIENTED_EDGE('',*,*,#426,.T.);
#186=ORIENTED_EDGE('',*,*,#427,.F.);
#187=ORIENTED_EDGE('',*,*,#428,.T.);
#188=ORIENTED_EDGE('',*,*,#429,.T.);
#189=ORIENTED_EDGE('',*,*,#421,.T.);
#190=ORIENTED_EDGE('',*,*,#367,.F.);
#191=ORIENTED_EDGE('',*,*,#430,.F.);
#192=ORIENTED_EDGE('',*,*,#379,.T.);
#193=ORIENTED_EDGE('',*,*,#424,.T.);
#194=ORIENTED_EDGE('',*,*,#366,.F.);
#195=ORIENTED_EDGE('',*,*,#361,.F.);
#196=ORIENTED_EDGE('',*,*,#380,.T.);
#197=ORIENTED_EDGE('',*,*,#430,.T.);
#198=ORIENTED_EDGE('',*,*,#431,.T.);
#199=ORIENTED_EDGE('',*,*,#432,.T.);
#200=ORIENTED_EDGE('',*,*,#364,.T.);
#201=ORIENTED_EDGE('',*,*,#433,.F.);
#202=ORIENTED_EDGE('',*,*,#382,.F.);
#203=ORIENTED_EDGE('',*,*,#434,.T.);
#204=ORIENTED_EDGE('',*,*,#363,.T.);
#205=ORIENTED_EDGE('',*,*,#435,.F.);
#206=ORIENTED_EDGE('',*,*,#383,.F.);
#207=ORIENTED_EDGE('',*,*,#433,.T.);
#208=ORIENTED_EDGE('',*,*,#436,.F.);
#209=ORIENTED_EDGE('',*,*,#435,.T.);
#210=ORIENTED_EDGE('',*,*,#362,.F.);
#211=ORIENTED_EDGE('',*,*,#423,.F.);
#212=ORIENTED_EDGE('',*,*,#437,.T.);
#213=ORIENTED_EDGE('',*,*,#438,.T.);
#214=ORIENTED_EDGE('',*,*,#439,.F.);
#215=ORIENTED_EDGE('',*,*,#440,.T.);
#216=ORIENTED_EDGE('',*,*,#351,.F.);
#217=ORIENTED_EDGE('',*,*,#441,.F.);
#218=ORIENTED_EDGE('',*,*,#373,.T.);
#219=ORIENTED_EDGE('',*,*,#350,.F.);
#220=ORIENTED_EDGE('',*,*,#419,.F.);
#221=ORIENTED_EDGE('',*,*,#374,.T.);
#222=ORIENTED_EDGE('',*,*,#441,.T.);
#223=ORIENTED_EDGE('',*,*,#442,.F.);
#224=ORIENTED_EDGE('',*,*,#406,.F.);
#225=ORIENTED_EDGE('',*,*,#420,.T.);
#226=ORIENTED_EDGE('',*,*,#429,.F.);
#227=ORIENTED_EDGE('',*,*,#443,.T.);
#228=ORIENTED_EDGE('',*,*,#437,.F.);
#229=ORIENTED_EDGE('',*,*,#422,.F.);
#230=ORIENTED_EDGE('',*,*,#415,.F.);
#231=ORIENTED_EDGE('',*,*,#439,.T.);
#232=ORIENTED_EDGE('',*,*,#444,.T.);
#233=ORIENTED_EDGE('',*,*,#427,.T.);
#234=ORIENTED_EDGE('',*,*,#445,.T.);
#235=ORIENTED_EDGE('',*,*,#392,.T.);
#236=ORIENTED_EDGE('',*,*,#446,.T.);
#237=ORIENTED_EDGE('',*,*,#398,.F.);
#238=ORIENTED_EDGE('',*,*,#400,.T.);
#239=ORIENTED_EDGE('',*,*,#447,.F.);
#240=ORIENTED_EDGE('',*,*,#403,.T.);
#241=ORIENTED_EDGE('',*,*,#417,.T.);
#242=ORIENTED_EDGE('',*,*,#370,.F.);
#243=ORIENTED_EDGE('',*,*,#411,.F.);
#244=ORIENTED_EDGE('',*,*,#447,.T.);
#245=ORIENTED_EDGE('',*,*,#396,.T.);
#246=ORIENTED_EDGE('',*,*,#448,.T.);
#247=ORIENTED_EDGE('',*,*,#389,.F.);
#248=ORIENTED_EDGE('',*,*,#405,.F.);
#249=ORIENTED_EDGE('',*,*,#449,.T.);
#250=ORIENTED_EDGE('',*,*,#401,.F.);
#251=ORIENTED_EDGE('',*,*,#376,.T.);
#252=ORIENTED_EDGE('',*,*,#418,.T.);
#253=ORIENTED_EDGE('',*,*,#449,.F.);
#254=ORIENTED_EDGE('',*,*,#410,.F.);
#255=ORIENTED_EDGE('',*,*,#428,.F.);
#256=ORIENTED_EDGE('',*,*,#444,.F.);
#257=ORIENTED_EDGE('',*,*,#438,.F.);
#258=ORIENTED_EDGE('',*,*,#443,.F.);
#259=ORIENTED_EDGE('',*,*,#426,.F.);
#260=ORIENTED_EDGE('',*,*,#352,.F.);
#261=ORIENTED_EDGE('',*,*,#440,.F.);
#262=ORIENTED_EDGE('',*,*,#445,.F.);
#263=ORIENTED_EDGE('',*,*,#390,.F.);
#264=ORIENTED_EDGE('',*,*,#448,.F.);
#265=ORIENTED_EDGE('',*,*,#395,.F.);
#266=ORIENTED_EDGE('',*,*,#385,.F.);
#267=ORIENTED_EDGE('',*,*,#391,.F.);
#268=ORIENTED_EDGE('',*,*,#387,.F.);
#269=ORIENTED_EDGE('',*,*,#399,.F.);
#270=ORIENTED_EDGE('',*,*,#446,.F.);
#271=ORIENTED_EDGE('',*,*,#358,.T.);
#272=ORIENTED_EDGE('',*,*,#450,.T.);
#273=ORIENTED_EDGE('',*,*,#431,.F.);
#274=ORIENTED_EDGE('',*,*,#451,.T.);
#275=ORIENTED_EDGE('',*,*,#357,.F.);
#276=ORIENTED_EDGE('',*,*,#365,.F.);
#277=ORIENTED_EDGE('',*,*,#432,.F.);
#278=ORIENTED_EDGE('',*,*,#450,.F.);
#279=ORIENTED_EDGE('',*,*,#359,.F.);
#280=ORIENTED_EDGE('',*,*,#451,.F.);
#281=ORIENTED_EDGE('',*,*,#434,.F.);
#282=ORIENTED_EDGE('',*,*,#381,.F.);
#283=ORIENTED_EDGE('',*,*,#436,.T.);
#284=ORIENTED_EDGE('',*,*,#414,.T.);
#285=ORIENTED_EDGE('',*,*,#452,.T.);
#286=ORIENTED_EDGE('',*,*,#407,.F.);
#287=ORIENTED_EDGE('',*,*,#442,.T.);
#288=ORIENTED_EDGE('',*,*,#453,.F.);
#289=ORIENTED_EDGE('',*,*,#454,.T.);
#290=ORIENTED_EDGE('',*,*,#455,.T.);
#291=ORIENTED_EDGE('',*,*,#413,.F.);
#292=ORIENTED_EDGE('',*,*,#456,.F.);
#293=ORIENTED_EDGE('',*,*,#457,.T.);
#294=ORIENTED_EDGE('',*,*,#458,.T.);
#295=ORIENTED_EDGE('',*,*,#459,.F.);
#296=ORIENTED_EDGE('',*,*,#458,.F.);
#297=ORIENTED_EDGE('',*,*,#460,.T.);
#298=ORIENTED_EDGE('',*,*,#408,.T.);
#299=ORIENTED_EDGE('',*,*,#461,.F.);
#300=ORIENTED_EDGE('',*,*,#462,.F.);
#301=ORIENTED_EDGE('',*,*,#463,.F.);
#302=ORIENTED_EDGE('',*,*,#464,.T.);
#303=ORIENTED_EDGE('',*,*,#465,.T.);
#304=ORIENTED_EDGE('',*,*,#466,.T.);
#305=ORIENTED_EDGE('',*,*,#467,.T.);
#306=ORIENTED_EDGE('',*,*,#454,.F.);
#307=ORIENTED_EDGE('',*,*,#468,.F.);
#308=ORIENTED_EDGE('',*,*,#469,.T.);
#309=ORIENTED_EDGE('',*,*,#470,.T.);
#310=ORIENTED_EDGE('',*,*,#456,.T.);
#311=ORIENTED_EDGE('',*,*,#471,.F.);
#312=ORIENTED_EDGE('',*,*,#472,.T.);
#313=ORIENTED_EDGE('',*,*,#473,.F.);
#314=ORIENTED_EDGE('',*,*,#464,.F.);
#315=ORIENTED_EDGE('',*,*,#474,.T.);
#316=ORIENTED_EDGE('',*,*,#469,.F.);
#317=ORIENTED_EDGE('',*,*,#475,.F.);
#318=ORIENTED_EDGE('',*,*,#472,.F.);
#319=ORIENTED_EDGE('',*,*,#476,.T.);
#320=ORIENTED_EDGE('',*,*,#466,.F.);
#321=ORIENTED_EDGE('',*,*,#477,.F.);
#322=ORIENTED_EDGE('',*,*,#465,.F.);
#323=ORIENTED_EDGE('',*,*,#475,.T.);
#324=ORIENTED_EDGE('',*,*,#473,.T.);
#325=ORIENTED_EDGE('',*,*,#477,.T.);
#326=ORIENTED_EDGE('',*,*,#471,.T.);
#327=ORIENTED_EDGE('',*,*,#459,.T.);
#328=ORIENTED_EDGE('',*,*,#461,.T.);
#329=ORIENTED_EDGE('',*,*,#452,.F.);
#330=ORIENTED_EDGE('',*,*,#455,.F.);
#331=ORIENTED_EDGE('',*,*,#467,.F.);
#332=ORIENTED_EDGE('',*,*,#476,.F.);
#333=ORIENTED_EDGE('',*,*,#463,.T.);
#334=ORIENTED_EDGE('',*,*,#453,.T.);
#335=ORIENTED_EDGE('',*,*,#345,.T.);
#336=ORIENTED_EDGE('',*,*,#460,.F.);
#337=ORIENTED_EDGE('',*,*,#457,.F.);
#338=ORIENTED_EDGE('',*,*,#470,.F.);
#339=ORIENTED_EDGE('',*,*,#474,.F.);
#340=ORIENTED_EDGE('',*,*,#468,.T.);
#341=ORIENTED_EDGE('',*,*,#462,.T.);
#342=ORIENTED_EDGE('',*,*,#394,.T.);
#343=ORIENTED_EDGE('',*,*,#388,.F.);
#344=ORIENTED_EDGE('',*,*,#425,.F.);
#345=EDGE_CURVE('',#478,#479,#566,.T.);
#346=EDGE_CURVE('',#478,#480,#567,.T.);
#347=EDGE_CURVE('',#480,#481,#568,.T.);
#348=EDGE_CURVE('',#479,#481,#569,.T.);
#349=EDGE_CURVE('',#480,#482,#570,.T.);
#350=EDGE_CURVE('',#482,#483,#47,.T.);
#351=EDGE_CURVE('',#483,#484,#571,.T.);
#352=EDGE_CURVE('',#484,#485,#572,.F.);
#353=EDGE_CURVE('',#485,#486,#573,.T.);
#354=EDGE_CURVE('',#487,#486,#48,.T.);
#355=EDGE_CURVE('',#487,#481,#574,.T.);
#356=EDGE_CURVE('',#488,#489,#575,.T.);
#357=EDGE_CURVE('',#489,#490,#49,.F.);
#358=EDGE_CURVE('',#491,#490,#50,.T.);
#359=EDGE_CURVE('',#491,#492,#51,.F.);
#360=EDGE_CURVE('',#493,#492,#576,.T.);
#361=EDGE_CURVE('',#493,#488,#577,.T.);
#362=EDGE_CURVE('',#494,#495,#578,.T.);
#363=EDGE_CURVE('',#496,#495,#52,.T.);
#364=EDGE_CURVE('',#497,#496,#579,.T.);
#365=EDGE_CURVE('',#497,#489,#580,.T.);
#366=EDGE_CURVE('',#488,#498,#53,.T.);
#367=EDGE_CURVE('',#498,#499,#581,.T.);
#368=EDGE_CURVE('',#500,#499,#54,.T.);
#369=EDGE_CURVE('',#501,#500,#582,.T.);
#370=EDGE_CURVE('',#501,#502,#583,.T.);
#371=EDGE_CURVE('',#502,#503,#584,.T.);
#372=EDGE_CURVE('',#503,#494,#55,.T.);
#373=EDGE_CURVE('',#504,#505,#585,.T.);
#374=EDGE_CURVE('',#506,#504,#56,.T.);
#375=EDGE_CURVE('',#507,#506,#586,.T.);
#376=EDGE_CURVE('',#508,#507,#587,.T.);
#377=EDGE_CURVE('',#508,#509,#588,.T.);
#378=EDGE_CURVE('',#509,#510,#57,.T.);
#379=EDGE_CURVE('',#511,#510,#589,.T.);
#380=EDGE_CURVE('',#493,#511,#58,.T.);
#381=EDGE_CURVE('',#492,#512,#590,.T.);
#382=EDGE_CURVE('',#512,#513,#591,.T.);
#383=EDGE_CURVE('',#513,#505,#59,.T.);
#384=EDGE_CURVE('',#514,#515,#592,.T.);
#385=EDGE_CURVE('',#514,#516,#593,.T.);
#386=EDGE_CURVE('',#516,#517,#594,.T.);
#387=EDGE_CURVE('',#517,#515,#595,.F.);
#388=EDGE_CURVE('',#518,#518,#60,.T.);
#389=EDGE_CURVE('',#519,#520,#596,.T.);
#390=EDGE_CURVE('',#520,#514,#61,.F.);
#391=EDGE_CURVE('',#515,#521,#62,.F.);
#392=EDGE_CURVE('',#522,#521,#597,.T.);
#393=EDGE_CURVE('',#519,#522,#598,.T.);
#394=EDGE_CURVE('',#523,#523,#63,.T.);
#395=EDGE_CURVE('',#516,#524,#64,.T.);
#396=EDGE_CURVE('',#525,#524,#599,.T.);
#397=EDGE_CURVE('',#525,#526,#600,.T.);
#398=EDGE_CURVE('',#526,#527,#601,.T.);
#399=EDGE_CURVE('',#527,#517,#65,.T.);
#400=EDGE_CURVE('',#526,#528,#35,.T.);
#401=EDGE_CURVE('',#525,#529,#36,.T.);
#402=EDGE_CURVE('',#529,#528,#602,.T.);
#403=EDGE_CURVE('',#530,#522,#37,.T.);
#404=EDGE_CURVE('',#530,#531,#603,.T.);
#405=EDGE_CURVE('',#531,#519,#38,.T.);
#406=EDGE_CURVE('',#532,#533,#604,.T.);
#407=EDGE_CURVE('',#533,#534,#605,.T.);
#408=EDGE_CURVE('',#479,#534,#606,.T.);
#409=EDGE_CURVE('',#509,#487,#607,.T.);
#410=EDGE_CURVE('',#508,#531,#608,.T.);
#411=EDGE_CURVE('',#530,#501,#609,.T.);
#412=EDGE_CURVE('',#532,#500,#610,.T.);
#413=EDGE_CURVE('',#478,#535,#611,.T.);
#414=EDGE_CURVE('',#536,#535,#612,.T.);
#415=EDGE_CURVE('',#536,#537,#613,.T.);
#416=EDGE_CURVE('',#537,#503,#614,.T.);
#417=EDGE_CURVE('',#528,#502,#615,.T.);
#418=EDGE_CURVE('',#507,#529,#616,.T.);
#419=EDGE_CURVE('',#506,#482,#617,.T.);
#420=EDGE_CURVE('',#532,#538,#66,.T.);
#421=EDGE_CURVE('',#538,#499,#618,.T.);
#422=EDGE_CURVE('',#537,#539,#67,.T.);
#423=EDGE_CURVE('',#539,#494,#619,.T.);
#424=EDGE_CURVE('',#510,#486,#620,.T.);
#425=EDGE_CURVE('',#540,#540,#68,.T.);
#426=EDGE_CURVE('',#485,#541,#14,.F.);
#427=EDGE_CURVE('',#542,#541,#621,.T.);
#428=EDGE_CURVE('',#542,#543,#15,.F.);
#429=EDGE_CURVE('',#543,#538,#622,.T.);
#430=EDGE_CURVE('',#511,#498,#623,.T.);
#431=EDGE_CURVE('',#544,#545,#69,.T.);
#432=EDGE_CURVE('',#545,#497,#70,.F.);
#433=EDGE_CURVE('',#513,#496,#624,.T.);
#434=EDGE_CURVE('',#512,#544,#71,.F.);
#435=EDGE_CURVE('',#505,#495,#625,.T.);
#436=EDGE_CURVE('',#546,#546,#72,.T.);
#437=EDGE_CURVE('',#539,#547,#626,.T.);
#438=EDGE_CURVE('',#547,#548,#16,.F.);
#439=EDGE_CURVE('',#549,#548,#627,.T.);
#440=EDGE_CURVE('',#549,#484,#17,.F.);
#441=EDGE_CURVE('',#504,#483,#628,.T.);
#442=EDGE_CURVE('',#533,#536,#629,.T.);
#443=EDGE_CURVE('',#543,#547,#630,.T.);
#444=EDGE_CURVE('',#548,#542,#631,.F.);
#445=EDGE_CURVE('',#541,#549,#632,.T.);
#446=EDGE_CURVE('',#521,#527,#633,.T.);
#447=EDGE_CURVE('',#530,#528,#634,.T.);
#448=EDGE_CURVE('',#524,#520,#635,.F.);
#449=EDGE_CURVE('',#531,#529,#636,.T.);
#450=EDGE_CURVE('',#490,#545,#637,.T.);
#451=EDGE_CURVE('',#544,#491,#638,.F.);
#452=EDGE_CURVE('',#535,#534,#639,.T.);
#453=EDGE_CURVE('',#550,#478,#39,.T.);
#454=EDGE_CURVE('',#550,#551,#640,.T.);
#455=EDGE_CURVE('',#551,#535,#40,.T.);
#456=EDGE_CURVE('',#552,#553,#641,.T.);
#457=EDGE_CURVE('',#552,#554,#41,.T.);
#458=EDGE_CURVE('',#554,#555,#642,.T.);
#459=EDGE_CURVE('',#553,#555,#42,.T.);
#460=EDGE_CURVE('',#554,#479,#643,.T.);
#461=EDGE_CURVE('',#555,#534,#644,.T.);
#462=EDGE_CURVE('',#556,#556,#73,.T.);
#463=EDGE_CURVE('',#557,#550,#645,.T.);
#464=EDGE_CURVE('',#557,#558,#74,.F.);
#465=EDGE_CURVE('',#558,#559,#646,.T.);
#466=EDGE_CURVE('',#559,#560,#75,.F.);
#467=EDGE_CURVE('',#560,#551,#647,.T.);
#468=EDGE_CURVE('',#561,#561,#76,.T.);
#469=EDGE_CURVE('',#562,#563,#77,.T.);
#470=EDGE_CURVE('',#563,#552,#648,.T.);
#471=EDGE_CURVE('',#564,#553,#649,.T.);
#472=EDGE_CURVE('',#564,#565,#78,.T.);
#473=EDGE_CURVE('',#562,#565,#650,.T.);
#474=EDGE_CURVE('',#557,#563,#651,.T.);
#475=EDGE_CURVE('',#558,#562,#652,.F.);
#476=EDGE_CURVE('',#564,#560,#653,.T.);
#477=EDGE_CURVE('',#565,#559,#654,.T.);
#478=VERTEX_POINT('',#1283);
#479=VERTEX_POINT('',#1284);
#480=VERTEX_POINT('',#1286);
#481=VERTEX_POINT('',#1288);
#482=VERTEX_POINT('',#1292);
#483=VERTEX_POINT('',#1294);
#484=VERTEX_POINT('',#1296);
#485=VERTEX_POINT('',#1298);
#486=VERTEX_POINT('',#1300);
#487=VERTEX_POINT('',#1302);
#488=VERTEX_POINT('',#1306);
#489=VERTEX_POINT('',#1307);
#490=VERTEX_POINT('',#1309);
#491=VERTEX_POINT('',#1311);
#492=VERTEX_POINT('',#1313);
#493=VERTEX_POINT('',#1315);
#494=VERTEX_POINT('',#1319);
#495=VERTEX_POINT('',#1320);
#496=VERTEX_POINT('',#1322);
#497=VERTEX_POINT('',#1324);
#498=VERTEX_POINT('',#1327);
#499=VERTEX_POINT('',#1329);
#500=VERTEX_POINT('',#1331);
#501=VERTEX_POINT('',#1333);
#502=VERTEX_POINT('',#1335);
#503=VERTEX_POINT('',#1337);
#504=VERTEX_POINT('',#1341);
#505=VERTEX_POINT('',#1342);
#506=VERTEX_POINT('',#1344);
#507=VERTEX_POINT('',#1346);
#508=VERTEX_POINT('',#1348);
#509=VERTEX_POINT('',#1350);
#510=VERTEX_POINT('',#1352);
#511=VERTEX_POINT('',#1354);
#512=VERTEX_POINT('',#1357);
#513=VERTEX_POINT('',#1359);
#514=VERTEX_POINT('',#1363);
#515=VERTEX_POINT('',#1364);
#516=VERTEX_POINT('',#1366);
#517=VERTEX_POINT('',#1368);
#518=VERTEX_POINT('',#1372);
#519=VERTEX_POINT('',#1374);
#520=VERTEX_POINT('',#1375);
#521=VERTEX_POINT('',#1378);
#522=VERTEX_POINT('',#1380);
#523=VERTEX_POINT('',#1384);
#524=VERTEX_POINT('',#1386);
#525=VERTEX_POINT('',#1388);
#526=VERTEX_POINT('',#1390);
#527=VERTEX_POINT('',#1392);
#528=VERTEX_POINT('',#1412);
#529=VERTEX_POINT('',#1419);
#530=VERTEX_POINT('',#1439);
#531=VERTEX_POINT('',#1441);
#532=VERTEX_POINT('',#1450);
#533=VERTEX_POINT('',#1451);
#534=VERTEX_POINT('',#1453);
#535=VERTEX_POINT('',#1461);
#536=VERTEX_POINT('',#1463);
#537=VERTEX_POINT('',#1465);
#538=VERTEX_POINT('',#1472);
#539=VERTEX_POINT('',#1476);
#540=VERTEX_POINT('',#1482);
#541=VERTEX_POINT('',#1484);
#542=VERTEX_POINT('',#1486);
#543=VERTEX_POINT('',#1488);
#544=VERTEX_POINT('',#1494);
#545=VERTEX_POINT('',#1495);
#546=VERTEX_POINT('',#1503);
#547=VERTEX_POINT('',#1505);
#548=VERTEX_POINT('',#1507);
#549=VERTEX_POINT('',#1509);
#550=VERTEX_POINT('',#1559);
#551=VERTEX_POINT('',#1561);
#552=VERTEX_POINT('',#1583);
#553=VERTEX_POINT('',#1584);
#554=VERTEX_POINT('',#1591);
#555=VERTEX_POINT('',#1593);
#556=VERTEX_POINT('',#1605);
#557=VERTEX_POINT('',#1607);
#558=VERTEX_POINT('',#1609);
#559=VERTEX_POINT('',#1611);
#560=VERTEX_POINT('',#1613);
#561=VERTEX_POINT('',#1617);
#562=VERTEX_POINT('',#1619);
#563=VERTEX_POINT('',#1620);
#564=VERTEX_POINT('',#1623);
#565=VERTEX_POINT('',#1625);
#566=LINE('',#1282,#655);
#567=LINE('',#1285,#656);
#568=LINE('',#1287,#657);
#569=LINE('',#1289,#658);
#570=LINE('',#1291,#659);
#571=LINE('',#1295,#660);
#572=LINE('',#1297,#661);
#573=LINE('',#1299,#662);
#574=LINE('',#1303,#663);
#575=LINE('',#1305,#664);
#576=LINE('',#1314,#665);
#577=LINE('',#1316,#666);
#578=LINE('',#1318,#667);
#579=LINE('',#1323,#668);
#580=LINE('',#1325,#669);
#581=LINE('',#1328,#670);
#582=LINE('',#1332,#671);
#583=LINE('',#1334,#672);
#584=LINE('',#1336,#673);
#585=LINE('',#1340,#674);
#586=LINE('',#1345,#675);
#587=LINE('',#1347,#676);
#588=LINE('',#1349,#677);
#589=LINE('',#1353,#678);
#590=LINE('',#1356,#679);
#591=LINE('',#1358,#680);
#592=LINE('',#1362,#681);
#593=LINE('',#1365,#682);
#594=LINE('',#1367,#683);
#595=LINE('',#1369,#684);
#596=LINE('',#1373,#685);
#597=LINE('',#1379,#686);
#598=LINE('',#1381,#687);
#599=LINE('',#1387,#688);
#600=LINE('',#1389,#689);
#601=LINE('',#1391,#690);
#602=LINE('',#1420,#691);
#603=LINE('',#1440,#692);
#604=LINE('',#1449,#693);
#605=LINE('',#1452,#694);
#606=LINE('',#1454,#695);
#607=LINE('',#1455,#696);
#608=LINE('',#1456,#697);
#609=LINE('',#1457,#698);
#610=LINE('',#1458,#699);
#611=LINE('',#1460,#700);
#612=LINE('',#1462,#701);
#613=LINE('',#1464,#702);
#614=LINE('',#1466,#703);
#615=LINE('',#1467,#704);
#616=LINE('',#1468,#705);
#617=LINE('',#1469,#706);
#618=LINE('',#1473,#707);
#619=LINE('',#1477,#708);
#620=LINE('',#1479,#709);
#621=LINE('',#1485,#710);
#622=LINE('',#1489,#711);
#623=LINE('',#1490,#712);
#624=LINE('',#1497,#713);
#625=LINE('',#1500,#714);
#626=LINE('',#1504,#715);
#627=LINE('',#1508,#716);
#628=LINE('',#1511,#717);
#629=LINE('',#1514,#718);
#630=LINE('',#1515,#719);
#631=LINE('',#1517,#720);
#632=LINE('',#1518,#721);
#633=LINE('',#1520,#722);
#634=LINE('',#1521,#723);
#635=LINE('',#1524,#724);
#636=LINE('',#1525,#725);
#637=LINE('',#1532,#726);
#638=LINE('',#1533,#727);
#639=LINE('',#1538,#728);
#640=LINE('',#1560,#729);
#641=LINE('',#1582,#730);
#642=LINE('',#1592,#731);
#643=LINE('',#1601,#732);
#644=LINE('',#1602,#733);
#645=LINE('',#1606,#734);
#646=LINE('',#1610,#735);
#647=LINE('',#1614,#736);
#648=LINE('',#1621,#737);
#649=LINE('',#1622,#738);
#650=LINE('',#1626,#739);
#651=LINE('',#1628,#740);
#652=LINE('',#1629,#741);
#653=LINE('',#1631,#742);
#654=LINE('',#1632,#743);
#655=VECTOR('',#1031,1.);
#656=VECTOR('',#1032,1.);
#657=VECTOR('',#1033,1.);
#658=VECTOR('',#1034,1.);
#659=VECTOR('',#1037,1.);
#660=VECTOR('',#1040,1.);
#661=VECTOR('',#1041,1.);
#662=VECTOR('',#1042,1.);
#663=VECTOR('',#1045,1.);
#664=VECTOR('',#1048,1.);
#665=VECTOR('',#1055,1.);
#666=VECTOR('',#1056,1.);
#667=VECTOR('',#1059,1.);
#668=VECTOR('',#1062,1.);
#669=VECTOR('',#1063,1.);
#670=VECTOR('',#1066,1.);
#671=VECTOR('',#1069,1.);
#672=VECTOR('',#1070,1.);
#673=VECTOR('',#1071,1.);
#674=VECTOR('',#1076,1.);
#675=VECTOR('',#1079,1.);
#676=VECTOR('',#1080,1.);
#677=VECTOR('',#1081,1.);
#678=VECTOR('',#1084,1.);
#679=VECTOR('',#1087,1.);
#680=VECTOR('',#1088,1.);
#681=VECTOR('',#1093,1.);
#682=VECTOR('',#1094,1.);
#683=VECTOR('',#1095,1.);
#684=VECTOR('',#1096,1.);
#685=VECTOR('',#1101,1.);
#686=VECTOR('',#1106,1.);
#687=VECTOR('',#1107,1.);
#688=VECTOR('',#1114,1.);
#689=VECTOR('',#1115,1.);
#690=VECTOR('',#1116,1.);
#691=VECTOR('',#1119,1.);
#692=VECTOR('',#1120,1.);
#693=VECTOR('',#1123,1.);
#694=VECTOR('',#1124,1.);
#695=VECTOR('',#1125,1.);
#696=VECTOR('',#1126,1.);
#697=VECTOR('',#1127,1.);
#698=VECTOR('',#1128,1.);
#699=VECTOR('',#1129,1.);
#700=VECTOR('',#1132,1.);
#701=VECTOR('',#1133,1.);
#702=VECTOR('',#1134,1.);
#703=VECTOR('',#1135,1.);
#704=VECTOR('',#1136,1.);
#705=VECTOR('',#1137,1.);
#706=VECTOR('',#1138,1.);
#707=VECTOR('',#1143,1.);
#708=VECTOR('',#1148,1.);
#709=VECTOR('',#1151,1.);
#710=VECTOR('',#1158,1.);
#711=VECTOR('',#1161,1.);
#712=VECTOR('',#1162,1.);
#713=VECTOR('',#1171,1.);
#714=VECTOR('',#1176,1.);
#715=VECTOR('',#1181,1.);
#716=VECTOR('',#1184,1.);
#717=VECTOR('',#1187,1.);
#718=VECTOR('',#1192,1.);
#719=VECTOR('',#1193,1.);
#720=VECTOR('',#1196,1.);
#721=VECTOR('',#1197,1.);
#722=VECTOR('',#1200,1.);
#723=VECTOR('',#1201,1.);
#724=VECTOR('',#1206,1.);
#725=VECTOR('',#1207,1.);
#726=VECTOR('',#1220,1.);
#727=VECTOR('',#1221,1.);
#728=VECTOR('',#1230,1.);
#729=VECTOR('',#1231,1.);
#730=VECTOR('',#1232,1.);
#731=VECTOR('',#1233,1.);
#732=VECTOR('',#1236,1.);
#733=VECTOR('',#1237,1.);
#734=VECTOR('',#1242,1.);
#735=VECTOR('',#1245,1.);
#736=VECTOR('',#1248,1.);
#737=VECTOR('',#1255,1.);
#738=VECTOR('',#1256,1.);
#739=VECTOR('',#1259,1.);
#740=VECTOR('',#1262,1.);
#741=VECTOR('',#1263,1.);
#742=VECTOR('',#1266,1.);
#743=VECTOR('',#1267,1.);
#744=EDGE_LOOP('',(#79,#80,#81,#82));
#745=EDGE_LOOP('',(#83,#84,#85,#86,#87,#88,#89,#90));
#746=EDGE_LOOP('',(#91,#92,#93,#94,#95,#96));
#747=EDGE_LOOP('',(#97,#98,#99,#100,#101,#102,#103,#104,#105,#106,#107,
#108));
#748=EDGE_LOOP('',(#109,#110,#111,#112,#113,#114,#115,#116,#117,#118,#119,
#120));
#749=EDGE_LOOP('',(#121,#122,#123,#124));
#750=EDGE_LOOP('',(#125));
#751=EDGE_LOOP('',(#126,#127,#128,#129,#130,#131));
#752=EDGE_LOOP('',(#132));
#753=EDGE_LOOP('',(#133,#134,#135,#136,#137,#138));
#754=EDGE_LOOP('',(#139,#140,#141,#142));
#755=EDGE_LOOP('',(#143,#144,#145,#146));
#756=EDGE_LOOP('',(#147,#148,#149,#150,#151,#152,#153,#154,#155,#156,#157,
#158));
#757=EDGE_LOOP('',(#159,#160,#161,#162,#163,#164,#165,#166,#167,#168,#169,
#170));
#758=EDGE_LOOP('',(#171,#172,#173,#174));
#759=EDGE_LOOP('',(#175,#176,#177,#178));
#760=EDGE_LOOP('',(#179,#180,#181,#182));
#761=EDGE_LOOP('',(#183));
#762=EDGE_LOOP('',(#184,#185,#186,#187,#188,#189,#190,#191,#192,#193));
#763=EDGE_LOOP('',(#194,#195,#196,#197));
#764=EDGE_LOOP('',(#198,#199,#200,#201,#202,#203));
#765=EDGE_LOOP('',(#204,#205,#206,#207));
#766=EDGE_LOOP('',(#208));
#767=EDGE_LOOP('',(#209,#210,#211,#212,#213,#214,#215,#216,#217,#218));
#768=EDGE_LOOP('',(#219,#220,#221,#222));
#769=EDGE_LOOP('',(#223,#224,#225,#226,#227,#228,#229,#230));
#770=EDGE_LOOP('',(#231,#232,#233,#234));
#771=EDGE_LOOP('',(#235,#236,#237,#238,#239,#240));
#772=EDGE_LOOP('',(#241,#242,#243,#244));
#773=EDGE_LOOP('',(#245,#246,#247,#248,#249,#250));
#774=EDGE_LOOP('',(#251,#252,#253,#254));
#775=EDGE_LOOP('',(#255,#256,#257,#258));
#776=EDGE_LOOP('',(#259,#260,#261,#262));
#777=EDGE_LOOP('',(#263,#264,#265,#266));
#778=EDGE_LOOP('',(#267,#268,#269,#270));
#779=EDGE_LOOP('',(#271,#272,#273,#274));
#780=EDGE_LOOP('',(#275,#276,#277,#278));
#781=EDGE_LOOP('',(#279,#280,#281,#282));
#782=EDGE_LOOP('',(#283));
#783=EDGE_LOOP('',(#284,#285,#286,#287));
#784=EDGE_LOOP('',(#288,#289,#290,#291));
#785=EDGE_LOOP('',(#292,#293,#294,#295));
#786=EDGE_LOOP('',(#296,#297,#298,#299));
#787=EDGE_LOOP('',(#300));
#788=EDGE_LOOP('',(#301,#302,#303,#304,#305,#306));
#789=EDGE_LOOP('',(#307));
#790=EDGE_LOOP('',(#308,#309,#310,#311,#312,#313));
#791=EDGE_LOOP('',(#314,#315,#316,#317));
#792=EDGE_LOOP('',(#318,#319,#320,#321));
#793=EDGE_LOOP('',(#322,#323,#324,#325));
#794=EDGE_LOOP('',(#326,#327,#328,#329,#330,#331,#332));
#795=EDGE_LOOP('',(#333,#334,#335,#336,#337,#338,#339));
#796=EDGE_LOOP('',(#340));
#797=EDGE_LOOP('',(#341));
#798=EDGE_LOOP('',(#342));
#799=EDGE_LOOP('',(#343));
#800=EDGE_LOOP('',(#344));
#801=FACE_BOUND('',#744,.T.);
#802=FACE_BOUND('',#745,.T.);
#803=FACE_BOUND('',#746,.T.);
#804=FACE_BOUND('',#747,.T.);
#805=FACE_BOUND('',#748,.T.);
#806=FACE_BOUND('',#749,.T.);
#807=FACE_BOUND('',#750,.T.);
#808=FACE_BOUND('',#751,.T.);
#809=FACE_BOUND('',#752,.T.);
#810=FACE_BOUND('',#753,.T.);
#811=FACE_BOUND('',#754,.T.);
#812=FACE_BOUND('',#755,.T.);
#813=FACE_BOUND('',#756,.T.);
#814=FACE_BOUND('',#757,.T.);
#815=FACE_BOUND('',#758,.T.);
#816=FACE_BOUND('',#759,.T.);
#817=FACE_BOUND('',#760,.T.);
#818=FACE_BOUND('',#761,.T.);
#819=FACE_BOUND('',#762,.T.);
#820=FACE_BOUND('',#763,.T.);
#821=FACE_BOUND('',#764,.T.);
#822=FACE_BOUND('',#765,.T.);
#823=FACE_BOUND('',#766,.T.);
#824=FACE_BOUND('',#767,.T.);
#825=FACE_BOUND('',#768,.T.);
#826=FACE_BOUND('',#769,.T.);
#827=FACE_BOUND('',#770,.T.);
#828=FACE_BOUND('',#771,.T.);
#829=FACE_BOUND('',#772,.T.);
#830=FACE_BOUND('',#773,.T.);
#831=FACE_BOUND('',#774,.T.);
#832=FACE_BOUND('',#775,.T.);
#833=FACE_BOUND('',#776,.T.);
#834=FACE_BOUND('',#777,.T.);
#835=FACE_BOUND('',#778,.T.);
#836=FACE_BOUND('',#779,.T.);
#837=FACE_BOUND('',#780,.T.);
#838=FACE_BOUND('',#781,.T.);
#839=FACE_BOUND('',#782,.T.);
#840=FACE_BOUND('',#783,.T.);
#841=FACE_BOUND('',#784,.T.);
#842=FACE_BOUND('',#785,.T.);
#843=FACE_BOUND('',#786,.T.);
#844=FACE_BOUND('',#787,.T.);
#845=FACE_BOUND('',#788,.T.);
#846=FACE_BOUND('',#789,.T.);
#847=FACE_BOUND('',#790,.T.);
#848=FACE_BOUND('',#791,.T.);
#849=FACE_BOUND('',#792,.T.);
#850=FACE_BOUND('',#793,.T.);
#851=FACE_BOUND('',#794,.T.);
#852=FACE_BOUND('',#795,.T.);
#853=FACE_BOUND('',#796,.T.);
#854=FACE_BOUND('',#797,.T.);
#855=FACE_BOUND('',#798,.T.);
#856=FACE_BOUND('',#799,.T.);
#857=FACE_BOUND('',#800,.T.);
#858=PLANE('',#946);
#859=PLANE('',#947);
#860=PLANE('',#950);
#861=PLANE('',#954);
#862=PLANE('',#959);
#863=PLANE('',#964);
#864=PLANE('',#965);
#865=PLANE('',#969);
#866=PLANE('',#973);
#867=PLANE('',#974);
#868=PLANE('',#980);
#869=PLANE('',#985);
#870=PLANE('',#990);
#871=PLANE('',#995);
#872=PLANE('',#996);
#873=PLANE('',#997);
#874=PLANE('',#998);
#875=PLANE('',#999);
#876=PLANE('',#1000);
#877=PLANE('',#1009);
#878=PLANE('',#1010);
#879=PLANE('',#1011);
#880=PLANE('',#1015);
#881=PLANE('',#1021);
#882=PLANE('',#1022);
#883=PLANE('',#1023);
#884=ADVANCED_FACE('',(#801),#858,.F.);
#885=ADVANCED_FACE('',(#802),#859,.F.);
#886=ADVANCED_FACE('',(#803),#860,.F.);
#887=ADVANCED_FACE('',(#804),#861,.F.);
#888=ADVANCED_FACE('',(#805),#862,.T.);
#889=ADVANCED_FACE('',(#806),#863,.T.);
#890=ADVANCED_FACE('',(#807,#808),#864,.F.);
#891=ADVANCED_FACE('',(#809,#810),#865,.T.);
#892=ADVANCED_FACE('',(#811),#43,.F.);
#893=ADVANCED_FACE('',(#812),#44,.F.);
#894=ADVANCED_FACE('',(#813),#866,.F.);
#895=ADVANCED_FACE('',(#814),#867,.T.);
#896=ADVANCED_FACE('',(#815),#18,.T.);
#897=ADVANCED_FACE('',(#816),#19,.F.);
#898=ADVANCED_FACE('',(#817),#20,.T.);
#899=ADVANCED_FACE('',(#818,#819),#868,.T.);
#900=ADVANCED_FACE('',(#820),#21,.F.);
#901=ADVANCED_FACE('',(#821),#869,.F.);
#902=ADVANCED_FACE('',(#822),#22,.T.);
#903=ADVANCED_FACE('',(#823,#824),#870,.T.);
#904=ADVANCED_FACE('',(#825),#23,.F.);
#905=ADVANCED_FACE('',(#826),#871,.T.);
#906=ADVANCED_FACE('',(#827),#872,.F.);
#907=ADVANCED_FACE('',(#828),#873,.T.);
#908=ADVANCED_FACE('',(#829),#874,.F.);
#909=ADVANCED_FACE('',(#830),#875,.F.);
#910=ADVANCED_FACE('',(#831),#876,.F.);
#911=ADVANCED_FACE('',(#832),#24,.F.);
#912=ADVANCED_FACE('',(#833),#25,.F.);
#913=ADVANCED_FACE('',(#834),#26,.T.);
#914=ADVANCED_FACE('',(#835),#27,.T.);
#915=ADVANCED_FACE('',(#836),#28,.T.);
#916=ADVANCED_FACE('',(#837),#29,.T.);
#917=ADVANCED_FACE('',(#838),#30,.T.);
#918=ADVANCED_FACE('',(#839),#12,.T.);
#919=ADVANCED_FACE('',(#840),#877,.F.);
#920=ADVANCED_FACE('',(#841),#45,.F.);
#921=ADVANCED_FACE('',(#842),#46,.T.);
#922=ADVANCED_FACE('',(#843),#878,.T.);
#923=ADVANCED_FACE('',(#844,#845),#879,.F.);
#924=ADVANCED_FACE('',(#846,#847),#880,.T.);
#925=ADVANCED_FACE('',(#848),#31,.T.);
#926=ADVANCED_FACE('',(#849),#32,.T.);
#927=ADVANCED_FACE('',(#850),#881,.F.);
#928=ADVANCED_FACE('',(#851),#882,.T.);
#929=ADVANCED_FACE('',(#852),#883,.T.);
#930=ADVANCED_FACE('',(#853,#854),#33,.F.);
#931=ADVANCED_FACE('',(#855,#856),#34,.F.);
#932=ADVANCED_FACE('',(#857),#13,.F.);
#933=CLOSED_SHELL('',(#884,#885,#886,#887,#888,#889,#890,#891,#892,#893,
#894,#895,#896,#897,#898,#899,#900,#901,#902,#903,#904,#905,#906,#907,#908,
#909,#910,#911,#912,#913,#914,#915,#916,#917,#918,#919,#920,#921,#922,#923,
#924,#925,#926,#927,#928,#929,#930,#931,#932));
#934=STYLED_ITEM('',(#935),#942);
#935=PRESENTATION_STYLE_ASSIGNMENT((#936));
#936=SURFACE_STYLE_USAGE(.BOTH.,#937);
#937=SURFACE_SIDE_STYLE('',(#938));
#938=SURFACE_STYLE_FILL_AREA(#939);
#939=FILL_AREA_STYLE('',(#940));
#940=FILL_AREA_STYLE_COLOUR('',#941);
#941=COLOUR_RGB('',0.917647058823529,0.917647058823529,0.917647058823529);
#942=MANIFOLD_SOLID_BREP('Part 1',#933);
#943=SHAPE_DEFINITION_REPRESENTATION(#1645,#944);
#944=SHAPE_REPRESENTATION('Part 1',(#945),#1640);
#945=AXIS2_PLACEMENT_3D('',#1280,#1027,#1028);
#946=AXIS2_PLACEMENT_3D('',#1281,#1029,#1030);
#947=AXIS2_PLACEMENT_3D('',#1290,#1035,#1036);
#948=AXIS2_PLACEMENT_3D('',#1293,#1038,#1039);
#949=AXIS2_PLACEMENT_3D('',#1301,#1043,#1044);
#950=AXIS2_PLACEMENT_3D('',#1304,#1046,#1047);
#951=AXIS2_PLACEMENT_3D('',#1308,#1049,#1050);
#952=AXIS2_PLACEMENT_3D('',#1310,#1051,#1052);
#953=AXIS2_PLACEMENT_3D('',#1312,#1053,#1054);
#954=AXIS2_PLACEMENT_3D('',#1317,#1057,#1058);
#955=AXIS2_PLACEMENT_3D('',#1321,#1060,#1061);
#956=AXIS2_PLACEMENT_3D('',#1326,#1064,#1065);
#957=AXIS2_PLACEMENT_3D('',#1330,#1067,#1068);
#958=AXIS2_PLACEMENT_3D('',#1338,#1072,#1073);
#959=AXIS2_PLACEMENT_3D('',#1339,#1074,#1075);
#960=AXIS2_PLACEMENT_3D('',#1343,#1077,#1078);
#961=AXIS2_PLACEMENT_3D('',#1351,#1082,#1083);
#962=AXIS2_PLACEMENT_3D('',#1355,#1085,#1086);
#963=AXIS2_PLACEMENT_3D('',#1360,#1089,#1090);
#964=AXIS2_PLACEMENT_3D('',#1361,#1091,#1092);
#965=AXIS2_PLACEMENT_3D('',#1370,#1097,#1098);
#966=AXIS2_PLACEMENT_3D('',#1371,#1099,#1100);
#967=AXIS2_PLACEMENT_3D('',#1376,#1102,#1103);
#968=AXIS2_PLACEMENT_3D('',#1377,#1104,#1105);
#969=AXIS2_PLACEMENT_3D('',#1382,#1108,#1109);
#970=AXIS2_PLACEMENT_3D('',#1383,#1110,#1111);
#971=AXIS2_PLACEMENT_3D('',#1385,#1112,#1113);
#972=AXIS2_PLACEMENT_3D('',#1393,#1117,#1118);
#973=AXIS2_PLACEMENT_3D('',#1448,#1121,#1122);
#974=AXIS2_PLACEMENT_3D('',#1459,#1130,#1131);
#975=AXIS2_PLACEMENT_3D('',#1470,#1139,#1140);
#976=AXIS2_PLACEMENT_3D('',#1471,#1141,#1142);
#977=AXIS2_PLACEMENT_3D('',#1474,#1144,#1145);
#978=AXIS2_PLACEMENT_3D('',#1475,#1146,#1147);
#979=AXIS2_PLACEMENT_3D('',#1478,#1149,#1150);
#980=AXIS2_PLACEMENT_3D('',#1480,#1152,#1153);
#981=AXIS2_PLACEMENT_3D('',#1481,#1154,#1155);
#982=AXIS2_PLACEMENT_3D('',#1483,#1156,#1157);
#983=AXIS2_PLACEMENT_3D('',#1487,#1159,#1160);
#984=AXIS2_PLACEMENT_3D('',#1491,#1163,#1164);
#985=AXIS2_PLACEMENT_3D('',#1492,#1165,#1166);
#986=AXIS2_PLACEMENT_3D('',#1493,#1167,#1168);
#987=AXIS2_PLACEMENT_3D('',#1496,#1169,#1170);
#988=AXIS2_PLACEMENT_3D('',#1498,#1172,#1173);
#989=AXIS2_PLACEMENT_3D('',#1499,#1174,#1175);
#990=AXIS2_PLACEMENT_3D('',#1501,#1177,#1178);
#991=AXIS2_PLACEMENT_3D('',#1502,#1179,#1180);
#992=AXIS2_PLACEMENT_3D('',#1506,#1182,#1183);
#993=AXIS2_PLACEMENT_3D('',#1510,#1185,#1186);
#994=AXIS2_PLACEMENT_3D('',#1512,#1188,#1189);
#995=AXIS2_PLACEMENT_3D('',#1513,#1190,#1191);
#996=AXIS2_PLACEMENT_3D('',#1516,#1194,#1195);
#997=AXIS2_PLACEMENT_3D('',#1519,#1198,#1199);
#998=AXIS2_PLACEMENT_3D('',#1522,#1202,#1203);
#999=AXIS2_PLACEMENT_3D('',#1523,#1204,#1205);
#1000=AXIS2_PLACEMENT_3D('',#1526,#1208,#1209);
#1001=AXIS2_PLACEMENT_3D('',#1527,#1210,#1211);
#1002=AXIS2_PLACEMENT_3D('',#1528,#1212,#1213);
#1003=AXIS2_PLACEMENT_3D('',#1529,#1214,#1215);
#1004=AXIS2_PLACEMENT_3D('',#1530,#1216,#1217);
#1005=AXIS2_PLACEMENT_3D('',#1531,#1218,#1219);
#1006=AXIS2_PLACEMENT_3D('',#1534,#1222,#1223);
#1007=AXIS2_PLACEMENT_3D('',#1535,#1224,#1225);
#1008=AXIS2_PLACEMENT_3D('',#1536,#1226,#1227);
#1009=AXIS2_PLACEMENT_3D('',#1537,#1228,#1229);
#1010=AXIS2_PLACEMENT_3D('',#1600,#1234,#1235);
#1011=AXIS2_PLACEMENT_3D('',#1603,#1238,#1239);
#1012=AXIS2_PLACEMENT_3D('',#1604,#1240,#1241);
#1013=AXIS2_PLACEMENT_3D('',#1608,#1243,#1244);
#1014=AXIS2_PLACEMENT_3D('',#1612,#1246,#1247);
#1015=AXIS2_PLACEMENT_3D('',#1615,#1249,#1250);
#1016=AXIS2_PLACEMENT_3D('',#1616,#1251,#1252);
#1017=AXIS2_PLACEMENT_3D('',#1618,#1253,#1254);
#1018=AXIS2_PLACEMENT_3D('',#1624,#1257,#1258);
#1019=AXIS2_PLACEMENT_3D('',#1627,#1260,#1261);
#1020=AXIS2_PLACEMENT_3D('',#1630,#1264,#1265);
#1021=AXIS2_PLACEMENT_3D('',#1633,#1268,#1269);
#1022=AXIS2_PLACEMENT_3D('',#1634,#1270,#1271);
#1023=AXIS2_PLACEMENT_3D('',#1635,#1272,#1273);
#1024=AXIS2_PLACEMENT_3D('',#1636,#1274,#1275);
#1025=AXIS2_PLACEMENT_3D('',#1637,#1276,#1277);
#1026=AXIS2_PLACEMENT_3D('',#1638,#1278,#1279);
#1027=DIRECTION('',(0.,0.,1.));
#1028=DIRECTION('',(1.,0.,0.));
#1029=DIRECTION('',(-1.,0.,0.));
#1030=DIRECTION('',(0.,0.,1.));
#1031=DIRECTION('',(0.,-2.2431769085907E-16,-1.));
#1032=DIRECTION('',(0.,-1.,0.));
#1033=DIRECTION('',(0.,0.,-1.));
#1034=DIRECTION('',(0.,-1.,0.));
#1035=DIRECTION('',(0.,-1.,0.));
#1036=DIRECTION('',(0.,0.,-1.));
#1037=DIRECTION('',(1.,0.,1.294036241383E-16));
#1038=DIRECTION('',(0.,-1.,0.));
#1039=DIRECTION('',(0.,0.,-1.));
#1040=DIRECTION('',(-0.136086622344566,0.,0.990696942166901));
#1041=DIRECTION('',(-1.,0.,0.));
#1042=DIRECTION('',(0.136086622344566,0.,-0.990696942166901));
#1043=DIRECTION('',(0.,-1.,0.));
#1044=DIRECTION('',(0.,0.,-1.));
#1045=DIRECTION('',(-1.,0.,-1.13270178984963E-16));
#1046=DIRECTION('',(-0.942166367108852,0.,0.335145545530457));
#1047=DIRECTION('',(0.335145545530457,0.,0.942166367108852));
#1048=DIRECTION('',(0.335145545530457,0.,0.942166367108852));
#1049=DIRECTION('',(-0.942166367108852,0.,0.335145545530457));
#1050=DIRECTION('',(0.335145545530457,0.,0.942166367108852));
#1051=DIRECTION('',(-0.942166367108852,0.,0.335145545530457));
#1052=DIRECTION('',(0.335145545530457,0.,0.942166367108852));
#1053=DIRECTION('',(-0.942166367108852,0.,0.335145545530457));
#1054=DIRECTION('',(0.335145545530457,0.,0.942166367108852));
#1055=DIRECTION('',(0.335145545530457,0.,0.942166367108852));
#1056=DIRECTION('',(0.,1.,0.));
#1057=DIRECTION('',(0.,-1.,0.));
#1058=DIRECTION('',(1.,0.,0.));
#1059=DIRECTION('',(-0.136086622344566,0.,0.990696942166901));
#1060=DIRECTION('',(0.,-1.,0.));
#1061=DIRECTION('',(0.,0.,-1.));
#1062=DIRECTION('',(-0.335145545530457,0.,-0.942166367108852));
#1063=DIRECTION('',(0.942166367108852,0.,-0.335145545530457));
#1064=DIRECTION('',(0.,-1.,0.));
#1065=DIRECTION('',(0.,0.,-1.));
#1066=DIRECTION('',(0.136086622344566,0.,-0.990696942166901));
#1067=DIRECTION('',(0.,-1.,0.));
#1068=DIRECTION('',(0.,0.,-1.));
#1069=DIRECTION('',(1.,0.,4.9126276098123E-16));
#1070=DIRECTION('',(0.,0.,1.));
#1071=DIRECTION('',(1.,0.,1.294036241383E-16));
#1072=DIRECTION('',(0.,-1.,0.));
#1073=DIRECTION('',(0.,0.,-1.));
#1074=DIRECTION('',(0.,-1.,0.));
#1075=DIRECTION('',(1.,0.,0.));
#1076=DIRECTION('',(-0.136086622344566,0.,0.990696942166901));
#1077=DIRECTION('',(0.,-1.,0.));
#1078=DIRECTION('',(0.,0.,-1.));
#1079=DIRECTION('',(1.,0.,1.294036241383E-16));
#1080=DIRECTION('',(0.,0.,1.));
#1081=DIRECTION('',(1.,0.,4.9126276098123E-16));
#1082=DIRECTION('',(0.,-1.,0.));
#1083=DIRECTION('',(0.,0.,-1.));
#1084=DIRECTION('',(0.136086622344566,0.,-0.990696942166901));
#1085=DIRECTION('',(0.,-1.,0.));
#1086=DIRECTION('',(0.,0.,-1.));
#1087=DIRECTION('',(-0.942166367108852,0.,0.335145545530457));
#1088=DIRECTION('',(-0.335145545530457,0.,-0.942166367108852));
#1089=DIRECTION('',(0.,-1.,0.));
#1090=DIRECTION('',(0.,0.,-1.));
#1091=DIRECTION('',(-1.,0.,0.));
#1092=DIRECTION('',(0.,0.,1.));
#1093=DIRECTION('',(0.,1.,0.));
#1094=DIRECTION('',(0.,0.,1.));
#1095=DIRECTION('',(0.,1.,0.));
#1096=DIRECTION('',(0.,0.,1.));
#1097=DIRECTION('',(0.,0.,1.));
#1098=DIRECTION('',(1.,0.,0.));
#1099=DIRECTION('',(0.,0.,1.));
#1100=DIRECTION('',(1.,0.,0.));
#1101=DIRECTION('',(-1.,0.,0.));
#1102=DIRECTION('',(0.,0.,1.));
#1103=DIRECTION('',(1.,0.,0.));
#1104=DIRECTION('',(0.,0.,1.));
#1105=DIRECTION('',(1.,0.,0.));
#1106=DIRECTION('',(-1.,0.,0.));
#1107=DIRECTION('',(0.,1.,0.));
#1108=DIRECTION('',(0.,0.,1.));
#1109=DIRECTION('',(1.,0.,0.));
#1110=DIRECTION('',(0.,0.,1.));
#1111=DIRECTION('',(1.,0.,0.));
#1112=DIRECTION('',(0.,0.,1.));
#1113=DIRECTION('',(1.,0.,0.));
#1114=DIRECTION('',(-1.,0.,0.));
#1115=DIRECTION('',(0.,1.,0.));
#1116=DIRECTION('',(-1.,0.,0.));
#1117=DIRECTION('',(0.,0.,1.));
#1118=DIRECTION('',(1.,0.,0.));
#1119=DIRECTION('',(0.,1.,0.));
#1120=DIRECTION('',(0.,-1.,0.));
#1121=DIRECTION('',(-4.9126276098123E-16,0.,1.));
#1122=DIRECTION('',(1.,0.,4.9126276098123E-16));
#1123=DIRECTION('',(-1.,0.,-1.13270178984963E-16));
#1124=DIRECTION('',(0.,-1.,0.));
#1125=DIRECTION('',(0.,1.,0.));
#1126=DIRECTION('',(0.,1.,0.));
#1127=DIRECTION('',(0.,1.,0.));
#1128=DIRECTION('',(0.,1.,0.));
#1129=DIRECTION('',(0.,1.,0.));
#1130=DIRECTION('',(-1.294036241383E-16,0.,1.));
#1131=DIRECTION('',(1.,0.,1.294036241383E-16));
#1132=DIRECTION('',(0.,1.,0.));
#1133=DIRECTION('',(0.,-1.,0.));
#1134=DIRECTION('',(1.,-2.90275221554985E-32,1.294036241383E-16));
#1135=DIRECTION('',(0.,1.,0.));
#1136=DIRECTION('',(0.,1.,0.));
#1137=DIRECTION('',(0.,1.,0.));
#1138=DIRECTION('',(0.,1.,0.));
#1139=DIRECTION('',(0.,1.,0.));
#1140=DIRECTION('',(0.,0.,1.));
#1141=DIRECTION('',(0.,-1.,-2.2431769085907E-16));
#1142=DIRECTION('',(0.,2.2431769085907E-16,-1.));
#1143=DIRECTION('',(0.,1.,0.));
#1144=DIRECTION('',(0.,1.,0.));
#1145=DIRECTION('',(0.,0.,1.));
#1146=DIRECTION('',(0.,-1.,-2.2431769085907E-16));
#1147=DIRECTION('',(0.,2.2431769085907E-16,-1.));
#1148=DIRECTION('',(0.,1.,0.));
#1149=DIRECTION('',(0.,1.,0.));
#1150=DIRECTION('',(0.,0.,1.));
#1151=DIRECTION('',(0.,1.,0.));
#1152=DIRECTION('',(0.990696942166901,0.,0.136086622344566));
#1153=DIRECTION('',(0.136086622344566,0.,-0.990696942166901));
#1154=DIRECTION('',(-0.990696942166901,0.,-0.136086622344566));
#1155=DIRECTION('',(-0.136086622344566,0.,0.990696942166901));
#1156=DIRECTION('',(0.990696942166901,0.,0.136086622344566));
#1157=DIRECTION('',(0.136086622344566,0.,-0.990696942166901));
#1158=DIRECTION('',(0.,-1.,0.));
#1159=DIRECTION('',(0.990696942166901,0.,0.136086622344566));
#1160=DIRECTION('',(-0.136086622344566,0.,0.990696942166901));
#1161=DIRECTION('',(0.136086622344566,2.22230850408021E-16,-0.990696942166901));
#1162=DIRECTION('',(0.,1.,0.));
#1163=DIRECTION('',(0.,1.,0.));
#1164=DIRECTION('',(0.,0.,1.));
#1165=DIRECTION('',(0.942166367108852,0.,-0.335145545530457));
#1166=DIRECTION('',(-0.335145545530457,0.,-0.942166367108852));
#1167=DIRECTION('',(-0.942166367108852,0.,0.335145545530457));
#1168=DIRECTION('',(0.335145545530457,0.,0.942166367108852));
#1169=DIRECTION('',(0.942166367108852,0.,-0.335145545530457));
#1170=DIRECTION('',(-0.335145545530457,0.,-0.942166367108852));
#1171=DIRECTION('',(0.,1.,0.));
#1172=DIRECTION('',(0.942166367108852,0.,-0.335145545530457));
#1173=DIRECTION('',(-0.335145545530457,0.,-0.942166367108852));
#1174=DIRECTION('',(0.,1.,0.));
#1175=DIRECTION('',(0.,0.,1.));
#1176=DIRECTION('',(0.,1.,0.));
#1177=DIRECTION('',(-0.990696942166901,0.,-0.136086622344566));
#1178=DIRECTION('',(-0.136086622344566,0.,0.990696942166901));
#1179=DIRECTION('',(-0.990696942166901,0.,-0.136086622344566));
#1180=DIRECTION('',(-0.136086622344566,0.,0.990696942166901));
#1181=DIRECTION('',(-0.136086622344566,-2.22230850408021E-16,0.990696942166901));
#1182=DIRECTION('',(-0.990696942166901,0.,-0.136086622344566));
#1183=DIRECTION('',(-0.136086622344566,0.,0.990696942166901));
#1184=DIRECTION('',(0.,1.,0.));
#1185=DIRECTION('',(-0.990696942166901,0.,-0.136086622344566));
#1186=DIRECTION('',(0.136086622344566,0.,-0.990696942166901));
#1187=DIRECTION('',(0.,1.,0.));
#1188=DIRECTION('',(0.,1.,0.));
#1189=DIRECTION('',(0.,0.,1.));
#1190=DIRECTION('',(0.,-1.,-2.2431769085907E-16));
#1191=DIRECTION('',(0.,2.2431769085907E-16,-1.));
#1192=DIRECTION('',(0.,-2.2431769085907E-16,1.));
#1193=DIRECTION('',(-1.,0.,0.));
#1194=DIRECTION('',(0.,0.,1.));
#1195=DIRECTION('',(1.,0.,0.));
#1196=DIRECTION('',(-1.,0.,0.));
#1197=DIRECTION('',(-1.,0.,0.));
#1198=DIRECTION('',(0.,1.,0.));
#1199=DIRECTION('',(0.,0.,1.));
#1200=DIRECTION('',(0.,0.,1.));
#1201=DIRECTION('',(0.,0.,1.));
#1202=DIRECTION('',(1.,0.,0.));
#1203=DIRECTION('',(0.,0.,-1.));
#1204=DIRECTION('',(0.,1.,0.));
#1205=DIRECTION('',(0.,0.,1.));
#1206=DIRECTION('',(0.,0.,1.));
#1207=DIRECTION('',(0.,0.,1.));
#1208=DIRECTION('',(1.,0.,0.));
#1209=DIRECTION('',(0.,0.,-1.));
#1210=DIRECTION('',(-1.,0.,0.));
#1211=DIRECTION('',(0.,0.,1.));
#1212=DIRECTION('',(1.,0.,0.));
#1213=DIRECTION('',(0.,0.,-1.));
#1214=DIRECTION('',(0.,0.,-1.));
#1215=DIRECTION('',(-1.,0.,0.));
#1216=DIRECTION('',(0.,0.,1.));
#1217=DIRECTION('',(1.,0.,0.));
#1218=DIRECTION('',(-0.942166367108852,0.,0.335145545530457));
#1219=DIRECTION('',(0.335145545530457,0.,0.942166367108852));
#1220=DIRECTION('',(-0.942166367108852,0.,0.335145545530457));
#1221=DIRECTION('',(-0.942166367108852,0.,0.335145545530457));
#1222=DIRECTION('',(-0.942166367108852,0.,0.335145545530457));
#1223=DIRECTION('',(0.335145545530457,0.,0.942166367108852));
#1224=DIRECTION('',(-0.942166367108852,0.,0.335145545530457));
#1225=DIRECTION('',(0.335145545530457,0.,0.942166367108852));
#1226=DIRECTION('',(-0.990696942166901,0.,-0.136086622344566));
#1227=DIRECTION('',(-0.136086622344566,0.,0.990696942166901));
#1228=DIRECTION('',(-1.,0.,0.));
#1229=DIRECTION('',(0.,0.,1.));
#1230=DIRECTION('',(0.,2.2431769085907E-16,-1.));
#1231=DIRECTION('',(0.,1.,0.));
#1232=DIRECTION('',(0.,1.,0.));
#1233=DIRECTION('',(0.,1.,0.));
#1234=DIRECTION('',(0.00381366830063861,1.4365432992391E-28,-0.999992727940605));
#1235=DIRECTION('',(-0.999992727940605,-7.16384784270957E-33,-0.00381366830063861));
#1236=DIRECTION('',(-0.999992727940605,-7.16384784270957E-33,-0.00381366830063861));
#1237=DIRECTION('',(-0.999992727940605,8.55473266901686E-19,-0.00381366830063861));
#1238=DIRECTION('',(1.13270178984963E-16,0.,-1.));
#1239=DIRECTION('',(-1.,0.,-1.13270178984963E-16));
#1240=DIRECTION('',(0.,0.,1.));
#1241=DIRECTION('',(1.,0.,0.));
#1242=DIRECTION('',(-1.,-2.43205727756335E-32,-1.0842021724855E-16));
#1243=DIRECTION('',(1.13270178984963E-16,0.,-1.));
#1244=DIRECTION('',(-1.,0.,-1.13270178984963E-16));
#1245=DIRECTION('',(0.,1.,0.));
#1246=DIRECTION('',(1.13270178984963E-16,0.,-1.));
#1247=DIRECTION('',(-1.,0.,-1.13270178984963E-16));
#1248=DIRECTION('',(-1.,2.43205727756335E-32,-1.0842021724855E-16));
#1249=DIRECTION('',(0.,0.,-1.));
#1250=DIRECTION('',(-1.,0.,0.));
#1251=DIRECTION('',(0.,0.,-1.));
#1252=DIRECTION('',(-1.,0.,0.));
#1253=DIRECTION('',(0.,0.,-1.));
#1254=DIRECTION('',(-1.,0.,0.));
#1255=DIRECTION('',(-1.,0.,0.));
#1256=DIRECTION('',(-1.,0.,0.));
#1257=DIRECTION('',(0.,0.,-1.));
#1258=DIRECTION('',(-1.,0.,0.));
#1259=DIRECTION('',(0.,1.,0.));
#1260=DIRECTION('',(0.,0.,-1.));
#1261=DIRECTION('',(-1.,0.,0.));
#1262=DIRECTION('',(0.,0.,-1.));
#1263=DIRECTION('',(0.,0.,1.));
#1264=DIRECTION('',(0.,-2.2431769085907E-16,1.));
#1265=DIRECTION('',(0.,-1.,-2.2431769085907E-16));
#1266=DIRECTION('',(0.,-2.2431769085907E-16,1.));
#1267=DIRECTION('',(0.,-2.2431769085907E-16,1.));
#1268=DIRECTION('',(-1.,0.,0.));
#1269=DIRECTION('',(0.,0.,1.));
#1270=DIRECTION('',(0.,1.,2.2431769085907E-16));
#1271=DIRECTION('',(-1.,0.,0.));
#1272=DIRECTION('',(0.,-1.,2.2431769085907E-16));
#1273=DIRECTION('',(-1.,0.,0.));
#1274=DIRECTION('',(0.,0.,1.));
#1275=DIRECTION('',(1.,0.,0.));
#1276=DIRECTION('',(0.,0.,1.));
#1277=DIRECTION('',(1.,0.,0.));
#1278=DIRECTION('',(-0.990696942166901,0.,-0.136086622344566));
#1279=DIRECTION('',(-0.136086622344566,0.,0.990696942166901));
#1280=CARTESIAN_POINT('',(0.,0.,0.));
#1281=CARTESIAN_POINT('',(0.0106078048066597,0.003177,0.000375));
#1282=CARTESIAN_POINT('',(0.0106078048066597,-0.001125,0.000375));
#1283=CARTESIAN_POINT('',(0.0106078048066597,-0.001125,0.0005));
#1284=CARTESIAN_POINT('',(0.0106078048066597,-0.001125,0.000250065178763043));
#1285=CARTESIAN_POINT('',(0.0106078048066597,0.003177,0.0005));
#1286=CARTESIAN_POINT('',(0.0106078048066597,-0.001175,0.0005));
#1287=CARTESIAN_POINT('',(0.0106078048066597,-0.001175,0.000375));
#1288=CARTESIAN_POINT('',(0.0106078048066597,-0.001175,0.00025));
#1289=CARTESIAN_POINT('',(0.0106078048066597,0.003177,0.00025));
#1290=CARTESIAN_POINT('',(0.025,-0.001175,0.0017));
#1291=CARTESIAN_POINT('',(0.00848922645986624,-0.001175,0.0005));
#1292=CARTESIAN_POINT('',(0.0126784529197325,-0.001175,0.000499999999999977));
#1293=CARTESIAN_POINT('',(0.0126784529197325,-0.001175,0.000846583269920622));
#1294=CARTESIAN_POINT('',(0.0130218119054491,-0.001175,0.000893748616485248));
#1295=CARTESIAN_POINT('',(0.0126650410497371,-0.001175,0.00349100461210558));
#1296=CARTESIAN_POINT('',(0.0127805652551387,-0.001175,0.00265));
#1297=CARTESIAN_POINT('',(0.0129642305932286,-0.001175,0.00265));
#1298=CARTESIAN_POINT('',(0.0130329128594961,-0.001175,0.00265));
#1299=CARTESIAN_POINT('',(0.0126829934568447,-0.001175,0.00519737810549679));
#1300=CARTESIAN_POINT('',(0.0132694861409908,-0.001175,0.000927770272071398));
#1301=CARTESIAN_POINT('',(0.0126784529197325,-0.001175,0.000846583269920623));
#1302=CARTESIAN_POINT('',(0.0126784529197325,-0.001175,0.00025));
#1303=CARTESIAN_POINT('',(0.0141142264598662,-0.001175,0.00025));
#1304=CARTESIAN_POINT('',(0.0125198209629319,-0.003175,0.0108581068068087));
#1305=CARTESIAN_POINT('',(0.0125198209629319,0.003175,0.0108581068068087));
#1306=CARTESIAN_POINT('',(0.0121256474143542,0.003175,0.00975));
#1307=CARTESIAN_POINT('',(0.0124420769495798,0.003175,0.0106395516280176));
#1308=CARTESIAN_POINT('',(0.0124420769495798,0.002175,0.0106395516280176));
#1309=CARTESIAN_POINT('',(0.0127544271590437,0.0025375,0.0115176353920446));
#1310=CARTESIAN_POINT('',(0.0105679756927965,1.16646380198713E-17,0.0053710490438554));
#1311=CARTESIAN_POINT('',(0.0127544271590436,-0.0025375,0.0115176353920446));
#1312=CARTESIAN_POINT('',(0.0124420769495798,-0.002175,0.0106395516280176));
#1313=CARTESIAN_POINT('',(0.0124420769495798,-0.003175,0.0106395516280176));
#1314=CARTESIAN_POINT('',(0.0125198209629319,-0.003175,0.0108581068068087));
#1315=CARTESIAN_POINT('',(0.0121256474143542,-0.003175,0.00975));
#1316=CARTESIAN_POINT('',(0.0121256474143542,-0.003175,0.00975));
#1317=CARTESIAN_POINT('',(0.00822728867691952,0.003175,0.00302398645970691));
#1318=CARTESIAN_POINT('',(0.0126650410497371,0.003175,0.00349100461210558));
#1319=CARTESIAN_POINT('',(0.0130218119054491,0.003175,0.000893748616485248));
#1320=CARTESIAN_POINT('',(0.0118488265371569,0.003175,0.00943296428333603));
#1321=CARTESIAN_POINT('',(0.0126914965815892,0.003175,0.00954871726007068));
#1322=CARTESIAN_POINT('',(0.011890105822577,0.003175,0.00983378638638261));
#1323=CARTESIAN_POINT('',(0.0122842793711547,0.003175,0.0109418931931913));
#1324=CARTESIAN_POINT('',(0.0122065353578026,0.003175,0.0107233380144002));
#1325=CARTESIAN_POINT('',(0.0124420769495798,0.003175,0.0106395516280176));
#1326=CARTESIAN_POINT('',(0.0126914965815892,0.003175,0.00954871726007068));
#1327=CARTESIAN_POINT('',(0.0120965007726986,0.003175,0.00946698593892218));
#1328=CARTESIAN_POINT('',(0.0126829934568447,0.003175,0.00519737810549679));
#1329=CARTESIAN_POINT('',(0.0132694861409908,0.003175,0.000927770272071398));
#1330=CARTESIAN_POINT('',(0.0126784529197325,0.003175,0.000846583269920623));
#1331=CARTESIAN_POINT('',(0.0126784529197325,0.003175,0.00025));
#1332=CARTESIAN_POINT('',(0.00783115198984742,0.003175,0.00025));
#1333=CARTESIAN_POINT('',(0.0043,0.003175,0.000249999999999997));
#1334=CARTESIAN_POINT('',(0.0043,0.003175,-0.0204319012188042));
#1335=CARTESIAN_POINT('',(0.0043,0.003175,0.0005));
#1336=CARTESIAN_POINT('',(0.00848922645986624,0.003175,0.0005));
#1337=CARTESIAN_POINT('',(0.0126784529197325,0.003175,0.000499999999999976));
#1338=CARTESIAN_POINT('',(0.0126784529197325,0.003175,0.000846583269920622));
#1339=CARTESIAN_POINT('',(0.00822728867691952,-0.003175,0.00302398645970691));
#1340=CARTESIAN_POINT('',(0.0118768653023626,-0.003175,0.00922884488884467));
#1341=CARTESIAN_POINT('',(0.0130218119054491,-0.003175,0.000893748616485248));
#1342=CARTESIAN_POINT('',(0.0118488265371569,-0.003175,0.00943296428333603));
#1343=CARTESIAN_POINT('',(0.0126784529197325,-0.003175,0.000846583269920622));
#1344=CARTESIAN_POINT('',(0.0126784529197325,-0.003175,0.000499999999999976));
#1345=CARTESIAN_POINT('',(0.00848922645986624,-0.003175,0.0005));
#1346=CARTESIAN_POINT('',(0.0043,-0.003175,0.0005));
#1347=CARTESIAN_POINT('',(0.0043,-0.003175,-0.0204319012188042));
#1348=CARTESIAN_POINT('',(0.0043,-0.003175,0.000249999999999997));
#1349=CARTESIAN_POINT('',(0.00783115198984742,-0.003175,0.00025));
#1350=CARTESIAN_POINT('',(0.0126784529197325,-0.003175,0.000249999999999989));
#1351=CARTESIAN_POINT('',(0.0126784529197325,-0.003175,0.000846583269920623));
#1352=CARTESIAN_POINT('',(0.0132694861409908,-0.003175,0.000927770272071398));
#1353=CARTESIAN_POINT('',(0.0126829934568447,-0.003175,0.00519737810549679));
#1354=CARTESIAN_POINT('',(0.0120965007726986,-0.003175,0.00946698593892218));
#1355=CARTESIAN_POINT('',(0.0126914965815892,-0.003175,0.00954871726007068));
#1356=CARTESIAN_POINT('',(0.0111054170336375,-0.003175,0.0111150256338365));
#1357=CARTESIAN_POINT('',(0.0122065353578026,-0.003175,0.0107233380144002));
#1358=CARTESIAN_POINT('',(0.0122842793711547,-0.003175,0.0109418931931913));
#1359=CARTESIAN_POINT('',(0.011890105822577,-0.003175,0.00983378638638261));
#1360=CARTESIAN_POINT('',(0.0126914965815892,-0.003175,0.00954871726007068));
#1361=CARTESIAN_POINT('',(0.,-0.003175,0.000125));
#1362=CARTESIAN_POINT('',(0.,-0.003175,0.));
#1363=CARTESIAN_POINT('',(0.,-0.00204,0.));
#1364=CARTESIAN_POINT('',(0.,0.00204,0.));
#1365=CARTESIAN_POINT('',(0.,-0.00204,0.00025));
#1366=CARTESIAN_POINT('',(0.,-0.00204,0.00025));
#1367=CARTESIAN_POINT('',(0.,-0.003175,0.00025));
#1368=CARTESIAN_POINT('',(0.,0.00204,0.00025));
#1369=CARTESIAN_POINT('',(0.,0.00204,0.000125));
#1370=CARTESIAN_POINT('',(0.00181186621923707,-0.003175,0.));
#1371=CARTESIAN_POINT('',(0.002,6.12323399573677E-20,0.));
#1372=CARTESIAN_POINT('',(0.003,6.12323399573677E-20,0.));
#1373=CARTESIAN_POINT('',(0.00181186621923707,-0.00254,0.));
#1374=CARTESIAN_POINT('',(0.00362373243847415,-0.00254,-2.36004534439559E-36));
#1375=CARTESIAN_POINT('',(0.0005,-0.00254,0.));
#1376=CARTESIAN_POINT('',(0.0005,-0.00204,0.));
#1377=CARTESIAN_POINT('',(0.0005,0.00204,0.));
#1378=CARTESIAN_POINT('',(0.0005,0.00254,0.));
#1379=CARTESIAN_POINT('',(0.00181186621923707,0.00254,0.));
#1380=CARTESIAN_POINT('',(0.00362373243847415,0.00254,-2.36004534439559E-36));
#1381=CARTESIAN_POINT('',(0.00362373243847415,-0.003175,0.));
#1382=CARTESIAN_POINT('',(0.00181186621923707,-0.003175,0.00025));
#1383=CARTESIAN_POINT('',(0.002,6.12323399573677E-20,0.00025));
#1384=CARTESIAN_POINT('',(0.003,6.12323399573677E-20,0.00025));
#1385=CARTESIAN_POINT('',(0.0005,-0.00204,0.00025));
#1386=CARTESIAN_POINT('',(0.0005,-0.00254,0.00025));
#1387=CARTESIAN_POINT('',(0.00181186621923707,-0.00254,0.00025));
#1388=CARTESIAN_POINT('',(0.00362373243847415,-0.00254,0.00025));
#1389=CARTESIAN_POINT('',(0.00362373243847415,-0.003175,0.00025));
#1390=CARTESIAN_POINT('',(0.00362373243847415,0.00254,0.00025));
#1391=CARTESIAN_POINT('',(0.00181186621923707,0.00254,0.00025));
#1392=CARTESIAN_POINT('',(0.0005,0.00254,0.00025));
#1393=CARTESIAN_POINT('',(0.0005,0.00204,0.00025));
#1394=CARTESIAN_POINT('',(0.00362373243847415,0.00254,0.00025));
#1395=CARTESIAN_POINT('',(0.00362373243847415,-0.00254,0.00025));
#1396=CARTESIAN_POINT('',(0.00370228640383697,0.00254,0.000249999999999997));
#1397=CARTESIAN_POINT('',(0.00370228640383697,-0.00254,0.000249999999999997));
#1398=CARTESIAN_POINT('',(0.00376669399041871,0.00254,0.000275385086871545));
#1399=CARTESIAN_POINT('',(0.00376669399041871,-0.00254,0.000275385086871545));
#1400=CARTESIAN_POINT('',(0.00396330079254353,0.00254,0.000407081253637969));
#1401=CARTESIAN_POINT('',(0.00396330079254353,-0.00254,0.000407081253637969));
#1402=CARTESIAN_POINT('',(0.00415962954709786,0.00254,0.0005));
#1403=CARTESIAN_POINT('',(0.00415962954709786,-0.00254,0.0005));
#1404=CARTESIAN_POINT('',(0.0043,0.00254,0.0005));
#1405=CARTESIAN_POINT('',(0.0043,-0.00254,0.0005));
#1406=CARTESIAN_POINT('',(0.00362373243847415,0.00254,0.00025));
#1407=CARTESIAN_POINT('',(0.00371297889861419,0.00254,0.000249999999999997));
#1408=CARTESIAN_POINT('',(0.0037828572443423,0.00254,0.000286912350748182));
#1409=CARTESIAN_POINT('',(0.00401023363173067,0.00254,0.000436200313745507));
#1410=CARTESIAN_POINT('',(0.00419466395575759,0.00254,0.0005));
#1411=CARTESIAN_POINT('',(0.0043,0.00254,0.0005));
#1412=CARTESIAN_POINT('',(0.0043,0.00254,0.0005));
#1413=CARTESIAN_POINT('',(0.00362373243847415,-0.00254,0.00025));
#1414=CARTESIAN_POINT('',(0.00371297889861419,-0.00254,0.000249999999999997));
#1415=CARTESIAN_POINT('',(0.0037828572443423,-0.00254,0.000286912350748182));
#1416=CARTESIAN_POINT('',(0.00401023363173067,-0.00254,0.000436200313745507));
#1417=CARTESIAN_POINT('',(0.00419466395575759,-0.00254,0.0005));
#1418=CARTESIAN_POINT('',(0.0043,-0.00254,0.0005));
#1419=CARTESIAN_POINT('',(0.0043,-0.00254,0.0005));
#1420=CARTESIAN_POINT('',(0.0043,-0.003175,0.0005));
#1421=CARTESIAN_POINT('',(0.0043,0.00254,0.000249999999999997));
#1422=CARTESIAN_POINT('',(0.0043,-0.00254,0.000249999999999997));
#1423=CARTESIAN_POINT('',(0.00423778144940504,0.00254,0.000249999999999997));
#1424=CARTESIAN_POINT('',(0.00423778144940504,-0.00254,0.000249999999999997));
#1425=CARTESIAN_POINT('',(0.0041573945189624,0.00254,0.000224614913128453));
#1426=CARTESIAN_POINT('',(0.0041573945189624,-0.00254,0.000224614913128453));
#1427=CARTESIAN_POINT('',(0.00394569166581208,0.00254,9.29187463620288E-5));
#1428=CARTESIAN_POINT('',(0.00394569166581208,-0.00254,9.29187463620288E-5));
#1429=CARTESIAN_POINT('',(0.00379289001988908,0.00254,-5.66550737669352E-20));
#1430=CARTESIAN_POINT('',(0.00379289001988908,-0.00254,-5.66550737669352E-20));
#1431=CARTESIAN_POINT('',(0.00362373243847415,0.00254,-2.36004534439559E-36));
#1432=CARTESIAN_POINT('',(0.00362373243847415,-0.00254,-2.36004534439559E-36));
#1433=CARTESIAN_POINT('',(0.0043,0.00254,0.000249999999999997));
#1434=CARTESIAN_POINT('',(0.00422931247493366,0.00254,0.000249999999999997));
#1435=CARTESIAN_POINT('',(0.00413251620814497,0.00254,0.000213087649251818));
#1436=CARTESIAN_POINT('',(0.00390786501549188,0.00254,6.37996862544889E-5));
#1437=CARTESIAN_POINT('',(0.00375067076567527,0.00254,-4.25147973343899E-20));
#1438=CARTESIAN_POINT('',(0.00362373243847415,0.00254,-2.36004534439559E-36));
#1439=CARTESIAN_POINT('',(0.0043,0.00254,0.000249999999999997));
#1440=CARTESIAN_POINT('',(0.0043,0.003177,0.000249999999999997));
#1441=CARTESIAN_POINT('',(0.0043,-0.00254,0.000249999999999997));
#1442=CARTESIAN_POINT('',(0.0043,-0.00254,0.000249999999999997));
#1443=CARTESIAN_POINT('',(0.00422931247493366,-0.00254,0.000249999999999997));
#1444=CARTESIAN_POINT('',(0.00413251620814497,-0.00254,0.000213087649251818));
#1445=CARTESIAN_POINT('',(0.00390786501549188,-0.00254,6.37996862544889E-5));
#1446=CARTESIAN_POINT('',(0.00375067076567527,-0.00254,-4.25147973343899E-20));
#1447=CARTESIAN_POINT('',(0.00362373243847415,-0.00254,-2.36004534439559E-36));
#1448=CARTESIAN_POINT('',(0.00783115198984742,-0.003175,0.00025));
#1449=CARTESIAN_POINT('',(0.0141142264598662,0.001175,0.00025));
#1450=CARTESIAN_POINT('',(0.0126784529197325,0.001175,0.00025));
#1451=CARTESIAN_POINT('',(0.0106078048066597,0.001175,0.00025));
#1452=CARTESIAN_POINT('',(0.0106078048066597,0.003177,0.00025));
#1453=CARTESIAN_POINT('',(0.0106078048080838,0.00112499994443936,0.00025006517951426));
#1454=CARTESIAN_POINT('',(0.0106078048066597,-0.001177,0.00025));
#1455=CARTESIAN_POINT('',(0.0126784529197325,-0.003175,0.000249999999999989));
#1456=CARTESIAN_POINT('',(0.0043,-0.003175,0.000249999999999997));
#1457=CARTESIAN_POINT('',(0.0043,-0.003175,0.000249999999999997));
#1458=CARTESIAN_POINT('',(0.0126784529197325,-0.003175,0.000249999999999989));
#1459=CARTESIAN_POINT('',(0.00848922645986624,-0.003175,0.0005));
#1460=CARTESIAN_POINT('',(0.0106078048066597,-0.001177,0.0005));
#1461=CARTESIAN_POINT('',(0.0106078048066597,0.001125,0.0005));
#1462=CARTESIAN_POINT('',(0.0106078048066597,0.003177,0.0005));
#1463=CARTESIAN_POINT('',(0.0106078048066597,0.001175,0.0005));
#1464=CARTESIAN_POINT('',(0.00848922645986624,0.001175,0.0005));
#1465=CARTESIAN_POINT('',(0.0126784529197325,0.001175,0.000499999999999977));
#1466=CARTESIAN_POINT('',(0.0126784529197325,-0.003175,0.000499999999999976));
#1467=CARTESIAN_POINT('',(0.0043,-0.003175,0.0005));
#1468=CARTESIAN_POINT('',(0.0043,-0.003175,0.0005));
#1469=CARTESIAN_POINT('',(0.0126784529197325,-0.003175,0.000499999999999976));
#1470=CARTESIAN_POINT('',(0.0126784529197325,-0.003175,0.000846583269920623));
#1471=CARTESIAN_POINT('',(0.0126784529197325,0.001175,0.000846583269920623));
#1472=CARTESIAN_POINT('',(0.0132694861409908,0.001175,0.000927770272071398));
#1473=CARTESIAN_POINT('',(0.0132694861409908,-0.003175,0.000927770272071398));
#1474=CARTESIAN_POINT('',(0.0126784529197325,-0.003175,0.000846583269920622));
#1475=CARTESIAN_POINT('',(0.0126784529197325,0.001175,0.000846583269920622));
#1476=CARTESIAN_POINT('',(0.0130218119054491,0.001175,0.000893748616485248));
#1477=CARTESIAN_POINT('',(0.0130218119054491,-0.003175,0.000893748616485248));
#1478=CARTESIAN_POINT('',(0.0126784529197325,-0.003175,0.000846583269920623));
#1479=CARTESIAN_POINT('',(0.0132694861409908,-0.003175,0.000927770272071398));
#1480=CARTESIAN_POINT('',(0.0126829934568447,-0.003175,0.00519737810549679));
#1481=CARTESIAN_POINT('',(0.0123542613663383,0.,0.00759051470662576));
#1482=CARTESIAN_POINT('',(0.0121757137177339,0.,0.00889032365519087));
#1483=CARTESIAN_POINT('',(0.0130329128594961,-0.000675,0.00265));
#1484=CARTESIAN_POINT('',(0.0129642305932286,-0.000675,0.00315));
#1485=CARTESIAN_POINT('',(0.0129642305932286,-0.003175,0.00315));
#1486=CARTESIAN_POINT('',(0.0129642305932286,0.000675,0.00315));
#1487=CARTESIAN_POINT('',(0.0130329128594961,0.000675,0.00265));
#1488=CARTESIAN_POINT('',(0.0130329128594961,0.001175,0.00265));
#1489=CARTESIAN_POINT('',(0.0126829934568447,0.001175,0.00519737810549679));
#1490=CARTESIAN_POINT('',(0.0120965007726986,-0.003175,0.00946698593892218));
#1491=CARTESIAN_POINT('',(0.0126914965815892,-0.003175,0.00954871726007068));
#1492=CARTESIAN_POINT('',(0.0122842793711547,-0.003175,0.0109418931931913));
#1493=CARTESIAN_POINT('',(0.0103324341010193,1.16646380198713E-17,0.00545483543023801));
#1494=CARTESIAN_POINT('',(0.0125188855672664,-0.0025375,0.0116014217784272));
#1495=CARTESIAN_POINT('',(0.0125188855672664,0.0025375,0.0116014217784272));
#1496=CARTESIAN_POINT('',(0.0122065353578026,0.002175,0.0107233380144002));
#1497=CARTESIAN_POINT('',(0.011890105822577,-0.003175,0.00983378638638261));
#1498=CARTESIAN_POINT('',(0.0122065353578026,-0.002175,0.0107233380144002));
#1499=CARTESIAN_POINT('',(0.0126914965815892,-0.003175,0.00954871726007068));
#1500=CARTESIAN_POINT('',(0.0118488265371569,-0.003175,0.00943296428333603));
#1501=CARTESIAN_POINT('',(0.0118768653023626,-0.003175,0.00922884488884467));
#1502=CARTESIAN_POINT('',(0.0121065871307966,0.,0.00755649305103962));
#1503=CARTESIAN_POINT('',(0.0119049040675682,0.,0.00902472549435332));
#1504=CARTESIAN_POINT('',(0.0126650410497371,0.001175,0.00349100461210558));
#1505=CARTESIAN_POINT('',(0.0127805652551387,0.001175,0.00265));
#1506=CARTESIAN_POINT('',(0.0127805652551387,0.000675,0.00265));
#1507=CARTESIAN_POINT('',(0.0127118829888712,0.000675,0.00315));
#1508=CARTESIAN_POINT('',(0.0127118829888712,-0.003175,0.00315));
#1509=CARTESIAN_POINT('',(0.0127118829888712,-0.000675,0.00315));
#1510=CARTESIAN_POINT('',(0.0127805652551387,-0.000675,0.00265));
#1511=CARTESIAN_POINT('',(0.0130218119054491,-0.003175,0.000893748616485248));
#1512=CARTESIAN_POINT('',(0.0126784529197325,-0.003175,0.000846583269920622));
#1513=CARTESIAN_POINT('',(0.025,0.001175,0.0017));
#1514=CARTESIAN_POINT('',(0.0106078048066597,0.001175,0.000375));
#1515=CARTESIAN_POINT('',(0.025,0.001175,0.00265));
#1516=CARTESIAN_POINT('',(0.025,-2.16840434497101E-19,0.00315));
#1517=CARTESIAN_POINT('',(0.025,0.000675,0.00315));
#1518=CARTESIAN_POINT('',(0.0127118829888712,-0.000675,0.00315));
#1519=CARTESIAN_POINT('',(0.00181186621923707,0.00254,-0.0204319012188042));
#1520=CARTESIAN_POINT('',(0.0005,0.00254,-0.0204319012188042));
#1521=CARTESIAN_POINT('',(0.0043,0.00254,-0.0204319012188042));
#1522=CARTESIAN_POINT('',(0.0043,0.0028575,-0.0204319012188042));
#1523=CARTESIAN_POINT('',(0.00181186621923707,-0.00254,-0.0204319012188042));
#1524=CARTESIAN_POINT('',(0.0005,-0.00254,0.));
#1525=CARTESIAN_POINT('',(0.0043,-0.00254,-0.0204319012188042));
#1526=CARTESIAN_POINT('',(0.0043,-0.0028575,-0.0204319012188042));
#1527=CARTESIAN_POINT('',(0.025,0.000675,0.00265));
#1528=CARTESIAN_POINT('',(0.025,-0.000675,0.00265));
#1529=CARTESIAN_POINT('',(0.0005,-0.00204,0.000125));
#1530=CARTESIAN_POINT('',(0.0005,0.00204,-0.0204319012188042));
#1531=CARTESIAN_POINT('',(0.0338865932787406,1.16646380198713E-17,-0.00292380320802342));
#1532=CARTESIAN_POINT('',(0.0360730447449878,0.0025375,0.0032227831401658));
#1533=CARTESIAN_POINT('',(0.0360730447449878,-0.0025375,0.00322278314016579));
#1534=CARTESIAN_POINT('',(0.0357606945355239,0.002175,0.00234469937613877));
#1535=CARTESIAN_POINT('',(0.0357606945355239,-0.002175,0.00234469937613876));
#1536=CARTESIAN_POINT('',(0.012781242657773,0.,0.00764916679212485));
#1537=CARTESIAN_POINT('',(0.0106078048066597,0.003177,0.000375));
#1538=CARTESIAN_POINT('',(0.0106078048066597,0.001125,0.000375));
#1539=CARTESIAN_POINT('',(0.0113623039796948,-0.001125,0.00025));
#1540=CARTESIAN_POINT('',(0.0113623039796948,0.001125,0.00025));
#1541=CARTESIAN_POINT('',(0.011264578722087,-0.001125,0.000263442464241831));
#1542=CARTESIAN_POINT('',(0.011264578722087,0.001125,0.000263442464241831));
#1543=CARTESIAN_POINT('',(0.0111439698291048,-0.001125,0.000274896228611675));
#1544=CARTESIAN_POINT('',(0.0111439698291048,0.001125,0.000274896228611675));
#1545=CARTESIAN_POINT('',(0.0109641742452299,-0.001125,0.000347132240491732));
#1546=CARTESIAN_POINT('',(0.0109641742452299,0.001125,0.000347132240491732));
#1547=CARTESIAN_POINT('',(0.0107737999476665,-0.001125,0.000458439610796519));
#1548=CARTESIAN_POINT('',(0.0107737999476665,0.001125,0.000458439610796519));
#1549=CARTESIAN_POINT('',(0.010678511611687,-0.001125,0.0005));
#1550=CARTESIAN_POINT('',(0.010678511611687,0.001125,0.0005));
#1551=CARTESIAN_POINT('',(0.0106078048066597,-0.001125,0.0005));
#1552=CARTESIAN_POINT('',(0.0106078048066597,0.001125,0.0005));
#1553=CARTESIAN_POINT('',(0.0113623039796948,-0.001125,0.00025));
#1554=CARTESIAN_POINT('',(0.011225560906218,-0.001125,0.000268809506575118));
#1555=CARTESIAN_POINT('',(0.0110908020823318,-0.001125,0.000280719608277945));
#1556=CARTESIAN_POINT('',(0.0108105808401972,-0.001125,0.000433695494152021));
#1557=CARTESIAN_POINT('',(0.0106936938262503,-0.001125,0.0005));
#1558=CARTESIAN_POINT('',(0.0106078048066597,-0.001125,0.0005));
#1559=CARTESIAN_POINT('',(0.0113623039796948,-0.001125,0.00025));
#1560=CARTESIAN_POINT('',(0.0113623039796948,-0.003175,0.00025));
#1561=CARTESIAN_POINT('',(0.0113623039796948,0.001125,0.00025));
#1562=CARTESIAN_POINT('',(0.0113623039796948,0.001125,0.00025));
#1563=CARTESIAN_POINT('',(0.011225560906218,0.001125,0.000268809506575118));
#1564=CARTESIAN_POINT('',(0.0110908020823318,0.001125,0.000280719608277945));
#1565=CARTESIAN_POINT('',(0.0108105808401972,0.001125,0.000433695494152021));
#1566=CARTESIAN_POINT('',(0.0106936938262503,0.001125,0.0005));
#1567=CARTESIAN_POINT('',(0.0106078048066597,0.001125,0.0005));
#1568=CARTESIAN_POINT('',(0.0113623039796948,-0.001125,8.35862092500265E-39));
#1569=CARTESIAN_POINT('',(0.0113623039796948,0.001125,8.35862092500265E-39));
#1570=CARTESIAN_POINT('',(0.0112631484298974,-0.001125,8.7613005155234E-7));
#1571=CARTESIAN_POINT('',(0.0112631484298974,0.001125,8.7613005155234E-7));
#1572=CARTESIAN_POINT('',(0.0111071165488747,-0.001125,1.47365913978042E-5));
#1573=CARTESIAN_POINT('',(0.0111071165488747,0.001125,1.47365913978042E-5));
#1574=CARTESIAN_POINT('',(0.0109529572976253,-0.001125,0.000112200417150327));
#1575=CARTESIAN_POINT('',(0.0109529572976253,0.001125,0.000112200417150327));
#1576=CARTESIAN_POINT('',(0.0108097442231669,-0.001125,0.000235935637924009));
#1577=CARTESIAN_POINT('',(0.0108097442231669,0.001125,0.000235935637924009));
#1578=CARTESIAN_POINT('',(0.0106848785442799,-0.001125,0.000248460545950753));
#1579=CARTESIAN_POINT('',(0.0106848785442799,0.001125,0.000248460545950753));
#1580=CARTESIAN_POINT('',(0.0106463062476653,-0.001125,0.00025));
#1581=CARTESIAN_POINT('',(0.0106463062476653,0.001125,0.00025));
#1582=CARTESIAN_POINT('',(0.0113623039796948,-0.003175,0.));
#1583=CARTESIAN_POINT('',(0.0113623039796948,-0.001125,-1.12158845429535E-20));
#1584=CARTESIAN_POINT('',(0.0113623039796948,0.001125,-1.12158845429535E-20));
#1585=CARTESIAN_POINT('',(0.0113623039796948,-0.001125,-1.12158845429535E-20));
#1586=CARTESIAN_POINT('',(0.0112070843988228,-0.001125,1.37150708829913E-6));
#1587=CARTESIAN_POINT('',(0.0110191047585007,-0.001125,3.58882835668231E-5));
#1588=CARTESIAN_POINT('',(0.0108467015191956,-0.001125,0.000228141862532236));
#1589=CARTESIAN_POINT('',(0.0106901138594735,-0.001125,0.000248251599948539));
#1590=CARTESIAN_POINT('',(0.0106463062476653,-0.001125,0.00025));
#1591=CARTESIAN_POINT('',(0.0106463062476653,-0.001125,0.00025));
#1592=CARTESIAN_POINT('',(0.0106463062476653,-0.001177,0.00025));
#1593=CARTESIAN_POINT('',(0.0106463062476653,0.001125,0.00025));
#1594=CARTESIAN_POINT('',(0.0113623039796948,0.001125,-1.12158845429535E-20));
#1595=CARTESIAN_POINT('',(0.0112070843988228,0.001125,1.37150708829913E-6));
#1596=CARTESIAN_POINT('',(0.0110191047585007,0.001125,3.58882835668231E-5));
#1597=CARTESIAN_POINT('',(0.0108467015191956,0.001125,0.000228141862532236));
#1598=CARTESIAN_POINT('',(0.0106901138594735,0.001125,0.000248251599948539));
#1599=CARTESIAN_POINT('',(0.0106463062476653,0.001125,0.00025));
#1600=CARTESIAN_POINT('',(0.0106233677801471,-0.00117700000384502,0.000250189709976353));
#1601=CARTESIAN_POINT('',(0.0106233677801471,-0.001125,0.000250189709976353));
#1602=CARTESIAN_POINT('',(0.00992500943362136,0.001125,0.000247526383519853));
#1603=CARTESIAN_POINT('',(0.0141142264598662,-0.003175,0.00025));
#1604=CARTESIAN_POINT('',(0.01435,3.06161699786839E-20,0.00025));
#1605=CARTESIAN_POINT('',(0.01485,3.06161699786839E-20,0.00025));
#1606=CARTESIAN_POINT('',(0.0153,-0.001125,0.00025));
#1607=CARTESIAN_POINT('',(0.0152679449471771,-0.001125,0.00025));
#1608=CARTESIAN_POINT('',(0.01505,-0.000675,0.00025));
#1609=CARTESIAN_POINT('',(0.01555,-0.000675,0.00025));
#1610=CARTESIAN_POINT('',(0.01555,-0.003175,0.00025));
#1611=CARTESIAN_POINT('',(0.01555,0.000675,0.00025));
#1612=CARTESIAN_POINT('',(0.01505,0.000675,0.00025));
#1613=CARTESIAN_POINT('',(0.0152679449471771,0.001125,0.00025));
#1614=CARTESIAN_POINT('',(0.0153,0.001125,0.00025));
#1615=CARTESIAN_POINT('',(0.0134561519898474,-0.003175,0.));
#1616=CARTESIAN_POINT('',(0.01435,3.06161699786839E-20,0.));
#1617=CARTESIAN_POINT('',(0.01385,3.06161699786839E-20,0.));
#1618=CARTESIAN_POINT('',(0.01505,-0.000675,0.));
#1619=CARTESIAN_POINT('',(0.01555,-0.000675,0.));
#1620=CARTESIAN_POINT('',(0.0152679449471771,-0.001125,0.));
#1621=CARTESIAN_POINT('',(0.0153,-0.001125,1.00942960886581E-19));
#1622=CARTESIAN_POINT('',(0.0153,0.001125,1.00942960886581E-19));
#1623=CARTESIAN_POINT('',(0.0152679449471771,0.001125,1.00942960886581E-19));
#1624=CARTESIAN_POINT('',(0.01505,0.000675,0.));
#1625=CARTESIAN_POINT('',(0.01555,0.000675,0.));
#1626=CARTESIAN_POINT('',(0.01555,-0.003175,0.));
#1627=CARTESIAN_POINT('',(0.01505,-0.000675,0.0017));
#1628=CARTESIAN_POINT('',(0.0152679449471771,-0.001125,0.0017));
#1629=CARTESIAN_POINT('',(0.01555,-0.000675,0.));
#1630=CARTESIAN_POINT('',(0.01505,0.000675,0.000125));
#1631=CARTESIAN_POINT('',(0.0152679449471771,0.001125,0.000125000000000001));
#1632=CARTESIAN_POINT('',(0.01555,0.000675,0.000125));
#1633=CARTESIAN_POINT('',(0.01555,-0.003175,0.000125));
#1634=CARTESIAN_POINT('',(0.009925,0.001125,0.00025));
#1635=CARTESIAN_POINT('',(0.009925,-0.001125,0.00025));
#1636=CARTESIAN_POINT('',(0.01435,3.06161699786839E-20,-0.0204319012188042));
#1637=CARTESIAN_POINT('',(0.002,6.12323399573677E-20,-0.0204319012188042));
#1638=CARTESIAN_POINT('',(0.012781242657773,0.,0.00764916679212485));
#1639=MECHANICAL_DESIGN_GEOMETRIC_PRESENTATION_REPRESENTATION('',(#934),
#1640);
#1640=(
GEOMETRIC_REPRESENTATION_CONTEXT(3)
GLOBAL_UNCERTAINTY_ASSIGNED_CONTEXT((#1641))
GLOBAL_UNIT_ASSIGNED_CONTEXT((#1644,#1643,#1642))
REPRESENTATION_CONTEXT('Part 1','TOP_LEVEL_ASSEMBLY_PART')
);
#1641=UNCERTAINTY_MEASURE_WITH_UNIT(LENGTH_MEASURE(2.E-5),#1644,
'DISTANCE_ACCURACY_VALUE','Maximum Tolerance applied to model');
#1642=(
NAMED_UNIT(*)
SI_UNIT($,.STERADIAN.)
SOLID_ANGLE_UNIT()
);
#1643=(
NAMED_UNIT(*)
PLANE_ANGLE_UNIT()
SI_UNIT($,.RADIAN.)
);
#1644=(
LENGTH_UNIT()
NAMED_UNIT(*)
SI_UNIT($,.METRE.)
);
#1645=PRODUCT_DEFINITION_SHAPE('','',#1646);
#1646=PRODUCT_DEFINITION('','',#1648,#1647);
#1647=PRODUCT_DEFINITION_CONTEXT('',#1654,'design');
#1648=PRODUCT_DEFINITION_FORMATION_WITH_SPECIFIED_SOURCE('','',#1650,
 .NOT_KNOWN.);
#1649=PRODUCT_RELATED_PRODUCT_CATEGORY('','',(#1650));
#1650=PRODUCT('Part 1','Part 1','Part 1',(#1652));
#1651=PRODUCT_CATEGORY('','');
#1652=PRODUCT_CONTEXT('',#1654,'mechanical');
#1653=APPLICATION_PROTOCOL_DEFINITION('international standard',
'ap242_managed_model_based_3d_engineering',2020,#1654);
#1654=APPLICATION_CONTEXT('managed model based 3d engineering');
ENDSEC;
END-ISO-10303-21;
